<svg xmlns="http://www.w3.org/2000/svg" viewBox="0 0 1024 768"><defs><style>.cls-1{fill:#fffffb;}.cls-2{fill:#222;}.cls-3,.cls-4{fill:none;stroke:#fc4349;stroke-miterlimit:10;}.cls-4{stroke-width:1.5px;}.cls-5,.cls-6,.cls-7,.cls-8{fill-rule:evenodd;}.cls-10,.cls-6{fill:#fff;}.cls-7{fill:#4654a4;}.cls-8{fill:#bbc3e3;}.cls-9{fill:#fc4349;}</style></defs><title>processing-mockup</title><g id="Background"><rect class="cls-1" width="1024" height="768"/></g><g id="Layer_1" data-name="Layer 1"><path class="cls-2" d="M22.9,168.54c0-3.8,2.12-6,5.19-6s5.2,2.25,5.2,6-2.12,6.16-5.2,6.16S22.9,172.35,22.9,168.54Zm8.23,0c0-2.63-1.19-4.23-3-4.23s-3,1.6-3,4.23,1.19,4.34,3,4.34S31.13,171.18,31.13,168.54Z"/><path class="cls-2" d="M35.47,165.64h1.71l.14,1.19h.07a4.11,4.11,0,0,1,2.9-1.4c1.89,0,2.72,1.28,2.72,3.51v5.55H40.94V169.2c0-1.46-.41-2-1.39-2a2.8,2.8,0,0,0-2,1.1v6.18H35.47Z"/><path class="cls-2" d="M49.45,171.49v-4.21H48.19v-1.55l1.37-.09.25-2.41h1.73v2.41h2.25v1.64H51.54v4.21c0,1,.4,1.55,1.24,1.55a2.52,2.52,0,0,0,.92-.2l.36,1.53a5.65,5.65,0,0,1-1.8.32C50.21,174.7,49.45,173.4,49.45,171.49Z"/><path class="cls-2" d="M55.65,161.77h2.07V165l-.07,1.71a4.05,4.05,0,0,1,2.83-1.33c1.89,0,2.72,1.28,2.72,3.51v5.55H61.12V169.2c0-1.46-.41-2-1.39-2a2.8,2.8,0,0,0-2,1.1v6.18H55.65Z"/><path class="cls-2" d="M65.46,162.92a1.28,1.28,0,1,1,1.28,1.17A1.19,1.19,0,0,1,65.46,162.92Zm.23,2.72h2.07v8.84H65.69Z"/><path class="cls-2" d="M69.52,173.47l1-1.33a3.93,3.93,0,0,0,2.45,1c1,0,1.4-.45,1.4-1.06s-1-1.06-1.89-1.42c-1.17-.43-2.48-1.1-2.48-2.58s1.24-2.65,3.22-2.65a4.77,4.77,0,0,1,2.94,1.06l-1,1.26a3.29,3.29,0,0,0-1.94-.76c-.88,0-1.3.41-1.3,1s.88,1,1.84,1.31c1.21.45,2.54,1,2.54,2.68s-1.21,2.74-3.44,2.74A5.6,5.6,0,0,1,69.52,173.47Z"/><path class="cls-2" d="M81.76,165.64h1.71l.14.94h.07a4.31,4.31,0,0,1,2.66-1.15c2.2,0,3.48,1.76,3.48,4.5,0,3-1.82,4.77-3.78,4.77a3.57,3.57,0,0,1-2.27-1l.05,1.48V178H81.76Zm5.92,4.3c0-1.76-.58-2.81-1.91-2.81a2.83,2.83,0,0,0-1.94,1v4.12a2.8,2.8,0,0,0,1.78.74C86.79,173,87.69,171.94,87.69,169.94Z"/><path class="cls-2" d="M91.23,172.1c0-1.89,1.57-2.88,5.2-3.28,0-.94-.41-1.73-1.62-1.73a5,5,0,0,0-2.48.86l-.76-1.39a6.91,6.91,0,0,1,3.64-1.15c2.2,0,3.3,1.35,3.3,3.82v5.24H96.79l-.14-1h-.07a4.3,4.3,0,0,1-2.74,1.19A2.47,2.47,0,0,1,91.23,172.1Zm5.2,0v-2c-2.41.31-3.21.94-3.21,1.82s.54,1.13,1.28,1.13A2.81,2.81,0,0,0,96.43,172.1Z"/><path class="cls-2" d="M100.39,176.08a2.28,2.28,0,0,1,1.26-1.89v-.07a1.66,1.66,0,0,1-.79-1.48,2.13,2.13,0,0,1,1-1.64v-.07a3,3,0,0,1-1.15-2.34,3.21,3.21,0,0,1,3.49-3.17,4,4,0,0,1,1.3.22h3.17v1.53H107a2.36,2.36,0,0,1,.5,1.49c0,2-1.48,3-3.35,3a3.26,3.26,0,0,1-1.21-.23,1,1,0,0,0-.43.85c0,.5.36.81,1.44.81h1.57c2.13,0,3.24.65,3.24,2.18,0,1.75-1.84,3.12-4.72,3.12C102,178.39,100.39,177.63,100.39,176.08Zm6.39-.47c0-.68-.56-.88-1.57-.88H104a4.69,4.69,0,0,1-1.21-.13,1.49,1.49,0,0,0-.68,1.17c0,.79.86,1.26,2.27,1.26S106.78,176.37,106.78,175.61Zm-1.08-7a1.55,1.55,0,1,0-3.08,0,1.56,1.56,0,1,0,3.08,0Z"/><path class="cls-2" d="M109.48,170.07c0-2.88,2-4.65,4.07-4.65,2.39,0,3.65,1.73,3.65,4.2a4.82,4.82,0,0,1-.09,1H111.5a2.53,2.53,0,0,0,2.61,2.47,3.69,3.69,0,0,0,2.05-.65l.7,1.3a5.58,5.58,0,0,1-3,1A4.26,4.26,0,0,1,109.48,170.07Zm5.92-.85c0-1.37-.59-2.2-1.8-2.2a2.22,2.22,0,0,0-2.12,2.2Z"/><path class="cls-2" d="M23.64,184.27h1.49v11.81H23.64Z"/><path class="cls-2" d="M28.23,187.33h1.22l.13,1.26h.05a4.13,4.13,0,0,1,2.94-1.48c1.84,0,2.66,1.19,2.66,3.42v5.55H33.76v-5.35c0-1.64-.5-2.34-1.66-2.34-.9,0-1.51.47-2.39,1.35v6.34H28.23Z"/><path class="cls-2" d="M41,191.72c0-2.84,1.8-4.61,3.8-4.61a3.61,3.61,0,0,1,2.45,1l-.07-1.49v-3.37h1.49v12.82H47.49l-.13-1h-.05a4,4,0,0,1-2.65,1.24C42.47,196.3,41,194.64,41,191.72Zm6.18,2.12v-4.57a3,3,0,0,0-2.12-.92c-1.4,0-2.52,1.35-2.52,3.35s.88,3.35,2.41,3.35A3,3,0,0,0,47.22,193.85Z"/><path class="cls-2" d="M51,191.72c0-2.86,1.93-4.61,3.93-4.61,2.23,0,3.49,1.6,3.49,4.11a5.71,5.71,0,0,1-.05.85H52.48a2.9,2.9,0,0,0,2.92,3,4,4,0,0,0,2.18-.68l.52,1a5.21,5.21,0,0,1-2.88.9C52.87,196.3,51,194.58,51,191.72Zm6.12-.72c0-1.76-.79-2.72-2.16-2.72A2.7,2.7,0,0,0,52.46,191Z"/><path class="cls-2" d="M60.59,187.33h1.22l.13,1H62a4.53,4.53,0,0,1,2.79-1.22c2.25,0,3.46,1.75,3.46,4.47,0,3-1.78,4.72-3.78,4.72a4.06,4.06,0,0,1-2.43-1l0,1.53v3H60.59Zm6.12,4.25c0-1.93-.65-3.22-2.3-3.22a3.69,3.69,0,0,0-2.34,1.19v4.59a3.46,3.46,0,0,0,2.14.92C65.65,195.05,66.72,193.74,66.72,191.58Z"/><path class="cls-2" d="M70.53,193.38v-4.84h-1.3v-1.12l1.37-.09.18-2.45H72v2.45h2.36v1.21H72v4.86c0,1.08.34,1.69,1.35,1.69a3.18,3.18,0,0,0,1-.23l.29,1.12a5.4,5.4,0,0,1-1.62.32C71.16,196.3,70.53,195.11,70.53,193.38Z"/><path class="cls-2" d="M76.36,183.26h1.48v3.49l-.05,1.8a4.18,4.18,0,0,1,2.92-1.44c1.84,0,2.66,1.19,2.66,3.42v5.55H81.89v-5.35c0-1.64-.5-2.34-1.66-2.34-.9,0-1.51.47-2.4,1.35v6.34H76.36Z"/><path class="cls-2" d="M26.09,207.13H22.53v-1.26h8.64v1.26H27.6v10.55H26.09Z"/><path class="cls-2" d="M32.19,214.47v-5.55h1.49v5.35c0,1.64.49,2.34,1.64,2.34.9,0,1.53-.45,2.36-1.48v-6.21h1.48v8.75H37.94l-.13-1.37h-.05a3.7,3.7,0,0,1-2.88,1.58C33,217.9,32.19,216.71,32.19,214.47Z"/><path class="cls-2" d="M42.36,215v-4.84h-1.3V209l1.37-.09.18-2.45h1.24v2.45h2.36v1.21H43.86V215c0,1.08.34,1.69,1.35,1.69a3.17,3.17,0,0,0,1-.23l.29,1.12a5.4,5.4,0,0,1-1.62.32C43,217.9,42.36,216.71,42.36,215Z"/><path class="cls-2" d="M47.29,213.32c0-2.93,1.91-4.61,4.05-4.61s4.05,1.67,4.05,4.61-1.91,4.57-4.05,4.57S47.29,216.22,47.29,213.32Zm6.57,0c0-2-1-3.38-2.52-3.38s-2.52,1.37-2.52,3.38,1,3.35,2.52,3.35S53.87,215.32,53.87,213.32Z"/><path class="cls-2" d="M57.7,208.93h1.22l.13,1.58h.05a3,3,0,0,1,2.48-1.8,2.17,2.17,0,0,1,.94.18l-.29,1.3a2.45,2.45,0,0,0-.85-.14c-.74,0-1.62.54-2.21,2v5.62H57.7Z"/><path class="cls-2" d="M63.67,206.17a1,1,0,0,1,2.05,0,1,1,0,0,1-2.05,0Zm.27,2.75h1.48v8.75H63.94Z"/><path class="cls-2" d="M67.83,215.41c0-1.91,1.64-2.86,5.37-3.28,0-1.12-.36-2.2-1.8-2.2a4.76,4.76,0,0,0-2.61.94l-.58-1a6.5,6.5,0,0,1,3.44-1.13c2.14,0,3,1.42,3,3.6v5.37H73.47l-.13-1h-.05a4.67,4.67,0,0,1-2.9,1.26A2.38,2.38,0,0,1,67.83,215.41Zm5.37.13v-2.43c-2.92.36-3.92,1.08-3.92,2.2s.68,1.4,1.55,1.4A3.55,3.55,0,0,0,73.2,215.54Z"/><path class="cls-2" d="M77.44,215.92V204.86h1.48V216c0,.47.2.65.41.65a1.23,1.23,0,0,0,.32,0l.2,1.12a2,2,0,0,1-.85.14C77.89,217.9,77.44,217.19,77.44,215.92Z"/><path class="cls-2" d="M81.06,216.69l.74-1a3.94,3.94,0,0,0,2.57,1c1.15,0,1.73-.61,1.73-1.37s-1-1.3-2-1.66c-1.24-.45-2.61-1-2.61-2.52s1.12-2.48,3-2.48a4.37,4.37,0,0,1,2.72,1l-.7.94a3.25,3.25,0,0,0-2-.77c-1.1,0-1.6.59-1.6,1.26,0,.83,1,1.13,1.94,1.51,1.26.47,2.67,1,2.67,2.65,0,1.42-1.13,2.61-3.21,2.61A5.27,5.27,0,0,1,81.06,216.69Z"/><path class="cls-2" d="M23,233.37c0-3.8,2.23-6.12,5.24-6.12a4.31,4.31,0,0,1,3.24,1.46l-.81,1a3.23,3.23,0,0,0-2.41-1.12c-2.23,0-3.71,1.84-3.71,4.77s1.42,4.84,3.65,4.84a3.56,3.56,0,0,0,2.74-1.33l.83.94a4.57,4.57,0,0,1-3.62,1.71C25.15,239.5,23,237.23,23,233.37Z"/><path class="cls-2" d="M33.13,234.92c0-2.93,1.91-4.61,4.05-4.61s4.05,1.67,4.05,4.61-1.91,4.57-4.05,4.57S33.13,237.82,33.13,234.92Zm6.57,0c0-2-1-3.38-2.52-3.38s-2.52,1.37-2.52,3.38,1,3.35,2.52,3.35S39.7,236.92,39.7,234.92Z"/><path class="cls-2" d="M43.53,230.53h1.22l.13,1.26h.05a3.85,3.85,0,0,1,2.72-1.48A2.3,2.3,0,0,1,50.07,232a4.14,4.14,0,0,1,2.88-1.67c1.8,0,2.67,1.19,2.67,3.42v5.55H54.14v-5.35c0-1.64-.52-2.34-1.62-2.34a3.21,3.21,0,0,0-2.2,1.35v6.34H48.84v-5.35c0-1.64-.52-2.34-1.64-2.34a3.28,3.28,0,0,0-2.2,1.35v6.34H43.53Z"/><path class="cls-2" d="M58.45,230.53h1.22l.13,1.26h.05a3.85,3.85,0,0,1,2.72-1.48A2.3,2.3,0,0,1,65,232a4.14,4.14,0,0,1,2.88-1.67c1.8,0,2.67,1.19,2.67,3.42v5.55H69.06v-5.35c0-1.64-.52-2.34-1.62-2.34a3.21,3.21,0,0,0-2.2,1.35v6.34H63.76v-5.35c0-1.64-.52-2.34-1.64-2.34a3.28,3.28,0,0,0-2.2,1.35v6.34H58.45Z"/><path class="cls-2" d="M72.83,237c0-1.91,1.64-2.86,5.37-3.28,0-1.12-.36-2.2-1.8-2.2a4.76,4.76,0,0,0-2.61.94l-.58-1a6.5,6.5,0,0,1,3.44-1.13c2.14,0,3,1.42,3,3.6v5.37H78.47l-.13-1h-.05a4.67,4.67,0,0,1-2.9,1.26A2.38,2.38,0,0,1,72.83,237Zm5.37.13v-2.43c-2.92.36-3.92,1.08-3.92,2.2s.68,1.4,1.55,1.4A3.55,3.55,0,0,0,78.2,237.14Z"/><path class="cls-2" d="M82.45,230.53h1.22l.13,1.26h.05a4.13,4.13,0,0,1,2.94-1.48c1.84,0,2.66,1.19,2.66,3.42v5.55H88v-5.35c0-1.64-.5-2.34-1.66-2.34-.9,0-1.51.47-2.39,1.35v6.34H82.45Z"/><path class="cls-2" d="M91.66,234.92c0-2.84,1.8-4.61,3.8-4.61a3.61,3.61,0,0,1,2.45,1l-.07-1.49v-3.37h1.49v12.82H98.11l-.13-1h-.05a4,4,0,0,1-2.65,1.24C93.08,239.5,91.66,237.84,91.66,234.92ZM97.84,237v-4.57a3,3,0,0,0-2.12-.92c-1.4,0-2.52,1.35-2.52,3.35s.88,3.35,2.41,3.35A3,3,0,0,0,97.84,237Z"/><path class="cls-2" d="M105.88,237.51V226.46h1.48v11.16c0,.47.2.65.41.65a1.23,1.23,0,0,0,.32,0l.2,1.12a2,2,0,0,1-.85.14C106.33,239.5,105.88,238.79,105.88,237.51Z"/><path class="cls-2" d="M110.2,227.77a1,1,0,0,1,2.05,0,1,1,0,0,1-2.05,0Zm.27,2.75h1.48v8.75h-1.48Z"/><path class="cls-2" d="M114.9,230.53h1.22l.13,1.26h.05a4.13,4.13,0,0,1,2.94-1.48c1.84,0,2.66,1.19,2.66,3.42v5.55h-1.48v-5.35c0-1.64-.5-2.34-1.66-2.34-.9,0-1.51.47-2.39,1.35v6.34H114.9Z"/><path class="cls-2" d="M124.1,234.92c0-2.86,1.93-4.61,3.93-4.61,2.23,0,3.49,1.6,3.49,4.11a5.71,5.71,0,0,1-.05.85h-5.91a2.9,2.9,0,0,0,2.92,3,4,4,0,0,0,2.18-.68l.52,1a5.21,5.21,0,0,1-2.88.9C126,239.5,124.1,237.78,124.1,234.92Zm6.12-.72c0-1.76-.79-2.72-2.16-2.72a2.7,2.7,0,0,0-2.52,2.72Z"/><path class="cls-2" d="M137.53,236.58v-4.84h-1.3v-1.12l1.37-.09.18-2.45H139v2.45h2.36v1.21H139v4.86c0,1.08.34,1.69,1.35,1.69a3.17,3.17,0,0,0,1-.23l.29,1.12a5.4,5.4,0,0,1-1.62.32C138.16,239.5,137.53,238.31,137.53,236.58Z"/><path class="cls-2" d="M142.44,237c0-1.91,1.64-2.86,5.37-3.28,0-1.12-.36-2.2-1.8-2.2a4.76,4.76,0,0,0-2.61.94l-.58-1a6.5,6.5,0,0,1,3.44-1.13c2.14,0,3,1.42,3,3.6v5.37h-1.22l-.13-1h-.05a4.67,4.67,0,0,1-2.9,1.26A2.38,2.38,0,0,1,142.44,237Zm5.37.13v-2.43c-2.92.36-3.93,1.08-3.93,2.2s.68,1.4,1.55,1.4A3.55,3.55,0,0,0,147.81,237.14Z"/><path class="cls-2" d="M151.08,238.29l.74-1a3.94,3.94,0,0,0,2.57,1c1.15,0,1.73-.61,1.73-1.37s-1-1.3-2-1.66c-1.24-.45-2.61-1-2.61-2.52s1.12-2.48,3-2.48a4.37,4.37,0,0,1,2.72,1l-.7.94a3.25,3.25,0,0,0-2-.77c-1.1,0-1.6.59-1.6,1.26,0,.83,1,1.13,1.94,1.51,1.26.47,2.67,1,2.67,2.65,0,1.42-1.13,2.61-3.21,2.61A5.27,5.27,0,0,1,151.08,238.29Z"/><path class="cls-2" d="M159.59,226.46h1.46v8.68h.05l3.73-4.61h1.64L163.54,234l3.33,5.24h-1.62l-2.56-4.21L161.05,237v2.3h-1.46Z"/><path class="cls-2" d="M167.53,238.29l.74-1a3.94,3.94,0,0,0,2.58,1c1.15,0,1.73-.61,1.73-1.37s-1-1.3-2-1.66c-1.24-.45-2.61-1-2.61-2.52s1.12-2.48,3-2.48a4.37,4.37,0,0,1,2.72,1l-.7.94a3.25,3.25,0,0,0-2-.77c-1.1,0-1.6.59-1.6,1.26,0,.83,1,1.13,1.94,1.51,1.26.47,2.67,1,2.67,2.65,0,1.42-1.13,2.61-3.21,2.61A5.27,5.27,0,0,1,167.53,238.29Z"/><rect class="cls-3" x="261.5" y="16.5" width="528" height="23" rx="11.5" ry="11.5"/><path class="cls-2" d="M273.93,32.74l.9-1a4.63,4.63,0,0,0,3.26,1.48c1.55,0,2.47-.77,2.47-1.93s-.85-1.58-2-2.09l-1.69-.74a3.32,3.32,0,0,1-2.39-3c0-1.8,1.57-3.13,3.71-3.13a4.9,4.9,0,0,1,3.49,1.46l-.81,1a3.77,3.77,0,0,0-2.68-1.12c-1.31,0-2.2.67-2.2,1.73s1,1.57,2,2l1.67.72c1.37.59,2.43,1.4,2.43,3.15s-1.53,3.37-4,3.37A5.73,5.73,0,0,1,273.93,32.74Z"/><path class="cls-2" d="M283.61,29.91c0-2.86,1.93-4.61,3.93-4.61,2.23,0,3.49,1.6,3.49,4.11a5.71,5.71,0,0,1-.05.85h-5.91a2.9,2.9,0,0,0,2.92,3,4,4,0,0,0,2.18-.68l.52,1a5.21,5.21,0,0,1-2.88.9C285.47,34.49,283.61,32.78,283.61,29.91Zm6.12-.72c0-1.76-.79-2.72-2.16-2.72a2.7,2.7,0,0,0-2.52,2.72Z"/><path class="cls-2" d="M292.4,32c0-1.91,1.64-2.86,5.37-3.28,0-1.12-.36-2.2-1.8-2.2a4.76,4.76,0,0,0-2.61.94l-.58-1a6.5,6.5,0,0,1,3.44-1.13c2.14,0,3,1.42,3,3.6v5.37H298l-.13-1h-.05a4.67,4.67,0,0,1-2.9,1.26A2.38,2.38,0,0,1,292.4,32Zm5.37.13V29.7c-2.92.36-3.92,1.08-3.92,2.2s.68,1.4,1.55,1.4A3.55,3.55,0,0,0,297.76,32.13Z"/><path class="cls-2" d="M302,25.52h1.22l.13,1.58h.05a3,3,0,0,1,2.48-1.8,2.17,2.17,0,0,1,.94.18l-.29,1.3a2.45,2.45,0,0,0-.85-.14c-.74,0-1.62.54-2.21,2v5.62H302Z"/><path class="cls-2" d="M307.43,29.91c0-2.93,2-4.61,4.21-4.61a3.63,3.63,0,0,1,2.56,1l-.76,1a2.56,2.56,0,0,0-1.75-.77c-1.58,0-2.74,1.37-2.74,3.38s1.1,3.35,2.7,3.35a3.11,3.11,0,0,0,2.05-.88l.65,1a4.27,4.27,0,0,1-2.83,1.12C309.21,34.49,307.43,32.81,307.43,29.91Z"/><path class="cls-2" d="M316.28,21.45h1.48v3.49l-.05,1.8a4.18,4.18,0,0,1,2.92-1.44c1.84,0,2.66,1.19,2.66,3.42v5.55h-1.48V28.92c0-1.64-.5-2.34-1.66-2.34-.9,0-1.51.47-2.4,1.35v6.34h-1.48Z"/><line class="cls-4" x1="245" y1="85" x2="1024" y2="85"/><path class="cls-2" d="M277.16,117.78h6.29L289,133.14c.67,2,1.34,4.08,2,6.14h.19c.67-2.06,1.3-4.18,2-6.14l5.42-15.36H305v31.39h-5.14V134.82c0-2.93.43-7.1.72-10h-.19l-2.54,7.3-5.14,14.11h-3.31l-5.18-14.11-2.5-7.3h-.19c.24,2.88.72,7.06.72,10v14.35h-5Z"/><path class="cls-2" d="M312.2,140.39V125.6h5.52v14.06c0,3.89,1.1,5.33,3.65,5.33,2.06,0,3.46-1,5.23-3.26V125.6h5.52v23.57h-4.51l-.43-3.46H327c-2.06,2.45-4.37,4-7.58,4C314.41,149.75,312.2,146.34,312.2,140.39Z"/><path class="cls-2" d="M339.13,143.13V115.28h5.52v28.13c0,1.34.62,1.82,1.2,1.82a3.32,3.32,0,0,0,.86-.1l.72,4.13a7.55,7.55,0,0,1-2.93.48C340.57,149.75,339.13,147.21,339.13,143.13Z"/><path class="cls-2" d="M352.95,141.21V130h-3.36v-4.13l3.65-.24.67-6.43h4.61v6.43h6V130h-6v11.23c0,2.78,1.06,4.13,3.31,4.13a6.77,6.77,0,0,0,2.45-.53l1,4.08a15.05,15.05,0,0,1-4.8.86C355,149.75,352.95,146.29,352.95,141.21Z"/><path class="cls-2" d="M368.84,118.36a3.42,3.42,0,1,1,3.41,3.12A3.17,3.17,0,0,1,368.84,118.36Zm.62,7.25H375v23.57h-5.52Z"/><path class="cls-2" d="M380.55,135.06H392v4H380.55Z"/><path class="cls-2" d="M396,137.41c0-7.68,5.33-12.38,10.85-12.38,6.38,0,9.75,4.61,9.75,11.19a12.86,12.86,0,0,1-.24,2.69h-15c.48,4.18,3.17,6.58,7,6.58a9.85,9.85,0,0,0,5.47-1.73l1.87,3.46a14.87,14.87,0,0,1-8.06,2.54C401,149.75,396,145.19,396,137.41Zm15.79-2.26c0-3.65-1.58-5.86-4.8-5.86-2.78,0-5.18,2.06-5.66,5.86Z"/><path class="cls-2" d="M421.83,125.6h4.56l.38,2.5H427a11.49,11.49,0,0,1,7.1-3.07c5.86,0,9.26,4.7,9.26,12,0,8.06-4.85,12.72-10.08,12.72a9.53,9.53,0,0,1-6-2.59l.14,3.94v7.39h-5.52Zm15.79,11.47c0-4.7-1.54-7.49-5.09-7.49-1.73,0-3.36.86-5.18,2.64v11a7.45,7.45,0,0,0,4.75,2C435.22,145.19,437.62,142.41,437.62,137.08Z"/><path class="cls-2" d="M447.36,137.41c0-7.87,5.33-12.38,11.19-12.38s11.23,4.51,11.23,12.38-5.33,12.34-11.23,12.34S447.36,145.24,447.36,137.41Zm16.75,0c0-4.75-2.11-7.87-5.57-7.87s-5.52,3.12-5.52,7.87,2.06,7.82,5.52,7.82S464.12,142.12,464.12,137.41Z"/><path class="cls-2" d="M473.71,137.41c0-7.87,5.52-12.38,11.81-12.38a10.15,10.15,0,0,1,6.91,2.64l-2.69,3.6a5.76,5.76,0,0,0-3.94-1.73c-3.79,0-6.43,3.12-6.43,7.87s2.59,7.82,6.29,7.82a7.86,7.86,0,0,0,4.85-2l2.26,3.65a11.77,11.77,0,0,1-7.68,2.88C478.66,149.75,473.71,145.24,473.71,137.41Z"/><path class="cls-2" d="M497.43,115.28h5.52V124l-.19,4.56c2-1.87,4.32-3.55,7.54-3.55,5,0,7.25,3.41,7.25,9.36v14.79H512V135.11c0-3.89-1.1-5.33-3.7-5.33-2.06,0-3.41,1-5.38,2.93v16.47h-5.52Z"/><path class="cls-2" d="M533.81,125.6h4.56l.38,2.5h.19a11.49,11.49,0,0,1,7.1-3.07c5.86,0,9.26,4.7,9.26,12,0,8.06-4.85,12.72-10.08,12.72a9.53,9.53,0,0,1-6-2.59l.14,3.94v7.39h-5.52Zm15.79,11.47c0-4.7-1.54-7.49-5.09-7.49-1.73,0-3.36.86-5.18,2.64v11a7.45,7.45,0,0,0,4.75,2C547.2,145.19,549.6,142.41,549.6,137.08Z"/><path class="cls-2" d="M560.88,125.6h4.56l.38,4.18H566c1.68-3.07,4.18-4.75,6.67-4.75a6,6,0,0,1,2.69.48l-1,4.8a7.7,7.7,0,0,0-2.45-.38c-1.87,0-4.13,1.3-5.57,4.85v14.4h-5.52Z"/><path class="cls-2" d="M576.77,137.41c0-7.87,5.33-12.38,11.19-12.38s11.23,4.51,11.23,12.38-5.33,12.34-11.23,12.34S576.77,145.24,576.77,137.41Zm16.75,0c0-4.75-2.11-7.87-5.57-7.87s-5.52,3.12-5.52,7.87,2.06,7.82,5.52,7.82S593.52,142.12,593.52,137.41Z"/><path class="cls-2" d="M603.12,137.41c0-7.87,5.52-12.38,11.81-12.38a10.15,10.15,0,0,1,6.91,2.64l-2.69,3.6a5.76,5.76,0,0,0-3.94-1.73c-3.79,0-6.43,3.12-6.43,7.87s2.59,7.82,6.29,7.82a7.86,7.86,0,0,0,4.85-2l2.26,3.65a11.77,11.77,0,0,1-7.68,2.88C608.07,149.75,603.12,145.24,603.12,137.41Z"/><path class="cls-2" d="M624.15,137.41c0-7.68,5.33-12.38,10.85-12.38,6.38,0,9.74,4.61,9.74,11.19a12.9,12.9,0,0,1-.24,2.69h-15c.48,4.18,3.17,6.58,7,6.58a9.84,9.84,0,0,0,5.47-1.73l1.87,3.46a14.87,14.87,0,0,1-8.06,2.54C629.23,149.75,624.15,145.19,624.15,137.41Zm15.79-2.26c0-3.65-1.58-5.86-4.8-5.86-2.78,0-5.18,2.06-5.66,5.86Z"/><path class="cls-2" d="M647.67,146.49l2.59-3.55a10.49,10.49,0,0,0,6.53,2.64c2.54,0,3.75-1.2,3.75-2.83,0-2-2.54-2.83-5-3.79-3.12-1.15-6.62-2.93-6.62-6.86,0-4.13,3.31-7.06,8.59-7.06a12.73,12.73,0,0,1,7.82,2.83l-2.54,3.36a8.77,8.77,0,0,0-5.18-2c-2.35,0-3.46,1.1-3.46,2.59,0,1.87,2.35,2.59,4.9,3.5,3.22,1.2,6.77,2.74,6.77,7.15,0,4-3.22,7.3-9.17,7.3A14.92,14.92,0,0,1,647.67,146.49Z"/><path class="cls-2" d="M668.35,146.49l2.59-3.55a10.49,10.49,0,0,0,6.53,2.64c2.54,0,3.75-1.2,3.75-2.83,0-2-2.54-2.83-5-3.79-3.12-1.15-6.62-2.93-6.62-6.86,0-4.13,3.31-7.06,8.59-7.06a12.73,12.73,0,0,1,7.82,2.83l-2.54,3.36a8.77,8.77,0,0,0-5.18-2c-2.35,0-3.46,1.1-3.46,2.59,0,1.87,2.35,2.59,4.9,3.5,3.22,1.2,6.77,2.74,6.77,7.15,0,4-3.22,7.3-9.17,7.3A14.92,14.92,0,0,1,668.35,146.49Z"/><path class="cls-2" d="M690.77,118.36a3.42,3.42,0,1,1,3.41,3.12A3.17,3.17,0,0,1,690.77,118.36Zm.62,7.25h5.52v23.57h-5.52Z"/><path class="cls-2" d="M704,125.6h4.56l.38,3.17h.19c2.11-2.06,4.51-3.74,7.73-3.74,5,0,7.25,3.41,7.25,9.36v14.79h-5.52V135.11c0-3.89-1.1-5.33-3.7-5.33-2.06,0-3.41,1-5.38,2.93v16.47H704Z"/><path class="cls-2" d="M729.26,153.45c0-2,1.2-3.7,3.36-5v-.19a4.43,4.43,0,0,1-2.11-3.94,5.68,5.68,0,0,1,2.59-4.37v-.19a8,8,0,0,1-3.07-6.24c0-5.42,4.37-8.45,9.31-8.45a10.61,10.61,0,0,1,3.46.58h8.45v4.08h-4.32a6.3,6.3,0,0,1,1.34,4c0,5.23-3.94,8-8.93,8a8.69,8.69,0,0,1-3.22-.62,2.71,2.71,0,0,0-1.15,2.26c0,1.34,1,2.16,3.84,2.16H743c5.66,0,8.64,1.73,8.64,5.81,0,4.66-4.9,8.3-12.58,8.3C733.44,159.59,729.26,157.58,729.26,153.45Zm17-1.25c0-1.82-1.49-2.35-4.18-2.35h-3.22a12.47,12.47,0,0,1-3.22-.34,4,4,0,0,0-1.82,3.12c0,2.11,2.3,3.36,6,3.36S746.31,154.22,746.31,152.2Zm-2.88-18.72c0-2.93-1.78-4.66-4.08-4.66s-4.13,1.68-4.13,4.66,1.82,4.75,4.13,4.75S743.43,136.5,743.43,133.48Z"/><path class="cls-2" d="M273.17,181.81h11.6v7.73h-11.6Z"/><path class="cls-2" d="M284.42,181.81H296v7.73h-11.6Z"/><path class="cls-2" d="M295.67,181.81h11.6v7.73h-11.6Z"/><path class="cls-2" d="M306.92,181.81h11.6v7.73h-11.6Z"/><path class="cls-2" d="M318.17,181.81h11.6v7.73h-11.6Z"/><path class="cls-2" d="M352,181.81h11.6v7.73H352Z"/><path class="cls-2" d="M363.24,181.81h11.6v7.73h-11.6Z"/><path class="cls-2" d="M374.49,181.81h11.6v7.73h-11.6Z"/><path class="cls-2" d="M385.74,181.81h11.6v7.73h-11.6Z"/><path class="cls-2" d="M397,181.81h11.6v7.73H397Z"/><path class="cls-2" d="M430.81,181.81h11.6v7.73h-11.6Z"/><path class="cls-2" d="M442.06,181.81h11.6v7.73h-11.6Z"/><path class="cls-2" d="M453.31,181.81h11.6v7.73h-11.6Z"/><path class="cls-2" d="M464.56,181.81h11.6v7.73h-11.6Z"/><path class="cls-2" d="M475.81,181.81h11.6v7.73h-11.6Z"/><path class="cls-2" d="M509.63,181.81h11.6v7.73h-11.6Z"/><path class="cls-2" d="M520.89,181.81h11.6v7.73h-11.6Z"/><path class="cls-2" d="M532.14,181.81h11.6v7.73h-11.6Z"/><path class="cls-2" d="M566,181.81h11.6v7.73H566Z"/><path class="cls-2" d="M577.21,181.81h11.6v7.73h-11.6Z"/><path class="cls-2" d="M588.46,181.81h11.6v7.73h-11.6Z"/><path class="cls-2" d="M599.71,181.81h11.6v7.73h-11.6Z"/><path class="cls-2" d="M611,181.81h11.6v7.73H611Z"/><path class="cls-2" d="M644.78,181.81h11.6v7.73h-11.6Z"/><path class="cls-2" d="M656,181.81h11.6v7.73H656Z"/><path class="cls-2" d="M667.28,181.81h11.6v7.73h-11.6Z"/><path class="cls-2" d="M678.53,181.81h11.6v7.73h-11.6Z"/><path class="cls-2" d="M689.78,181.81h11.6v7.73h-11.6Z"/><path class="cls-2" d="M701,181.81h11.6v7.73H701Z"/><path class="cls-2" d="M712.28,181.81h11.6v7.73h-11.6Z"/><path class="cls-2" d="M273.17,203.41h11.6v7.73h-11.6Z"/><path class="cls-2" d="M284.42,203.41H296v7.73h-11.6Z"/><path class="cls-2" d="M295.67,203.41h11.6v7.73h-11.6Z"/><path class="cls-2" d="M306.92,203.41h11.6v7.73h-11.6Z"/><path class="cls-2" d="M318.17,203.41h11.6v7.73h-11.6Z"/><path class="cls-2" d="M329.42,203.41H341v7.73h-11.6Z"/><path class="cls-2" d="M363.24,203.41h11.6v7.73h-11.6Z"/><path class="cls-2" d="M374.49,203.41h11.6v7.73h-11.6Z"/><path class="cls-2" d="M385.74,203.41h11.6v7.73h-11.6Z"/><path class="cls-2" d="M397,203.41h11.6v7.73H397Z"/><path class="cls-2" d="M408.24,203.41h11.6v7.73h-11.6Z"/><path class="cls-2" d="M419.49,203.41h11.6v7.73h-11.6Z"/><path class="cls-2" d="M430.74,203.41h11.6v7.73h-11.6Z"/><path class="cls-2" d="M442,203.41h11.6v7.73H442Z"/><path class="cls-2" d="M453.24,203.41h11.6v7.73h-11.6Z"/><path class="cls-2" d="M464.49,203.41h11.6v7.73h-11.6Z"/><path class="cls-2" d="M498.31,203.41h11.6v7.73h-11.6Z"/><path class="cls-2" d="M509.56,203.41h11.6v7.73h-11.6Z"/><path class="cls-2" d="M520.82,203.41h11.6v7.73h-11.6Z"/><path class="cls-2" d="M532.07,203.41h11.6v7.73h-11.6Z"/><path class="cls-2" d="M543.32,203.41h11.6v7.73h-11.6Z"/><path class="cls-2" d="M577.14,203.41h11.6v7.73h-11.6Z"/><path class="cls-2" d="M588.39,203.41H600v7.73h-11.6Z"/><path class="cls-2" d="M599.64,203.41h11.6v7.73h-11.6Z"/><path class="cls-2" d="M633.46,203.41h11.6v7.73h-11.6Z"/><path class="cls-2" d="M644.71,203.41h11.6v7.73h-11.6Z"/><path class="cls-2" d="M656,203.41h11.6v7.73H656Z"/><path class="cls-2" d="M667.21,203.41h11.6v7.73h-11.6Z"/><path class="cls-2" d="M273.17,225h11.6v7.73h-11.6Z"/><path class="cls-2" d="M284.42,225H296v7.73h-11.6Z"/><path class="cls-2" d="M295.67,225h11.6v7.73h-11.6Z"/><path class="cls-2" d="M306.92,225h11.6v7.73h-11.6Z"/><path class="cls-2" d="M318.17,225h11.6v7.73h-11.6Z"/><path class="cls-2" d="M329.42,225H341v7.73h-11.6Z"/><path class="cls-2" d="M340.67,225h11.6v7.73h-11.6Z"/><path class="cls-2" d="M374.49,225h11.6v7.73h-11.6Z"/><path class="cls-2" d="M385.74,225h11.6v7.73h-11.6Z"/><path class="cls-2" d="M397,225h11.6v7.73H397Z"/><path class="cls-2" d="M408.24,225h11.6v7.73h-11.6Z"/><path class="cls-2" d="M442.06,225h11.6v7.73h-11.6Z"/><path class="cls-2" d="M453.31,225h11.6v7.73h-11.6Z"/><path class="cls-2" d="M464.56,225h11.6v7.73h-11.6Z"/><path class="cls-2" d="M475.81,225h11.6v7.73h-11.6Z"/><path class="cls-2" d="M487.06,225h11.6v7.73h-11.6Z"/><path class="cls-2" d="M498.31,225h11.6v7.73h-11.6Z"/><path class="cls-2" d="M509.56,225h11.6v7.73h-11.6Z"/><path class="cls-2" d="M543.39,225H555v7.73h-11.6Z"/><path class="cls-2" d="M554.64,225h11.6v7.73h-11.6Z"/><path class="cls-2" d="M565.89,225h11.6v7.73h-11.6Z"/><path class="cls-2" d="M577.14,225h11.6v7.73h-11.6Z"/><path class="cls-2" d="M588.39,225H600v7.73h-11.6Z"/><path class="cls-2" d="M599.64,225h11.6v7.73h-11.6Z"/><path class="cls-2" d="M610.89,225h11.6v7.73h-11.6Z"/><path class="cls-2" d="M622.14,225h11.6v7.73h-11.6Z"/><path class="cls-2" d="M633.39,225H645v7.73h-11.6Z"/><path class="cls-2" d="M667.21,225h11.6v7.73h-11.6Z"/><path class="cls-2" d="M678.46,225h11.6v7.73h-11.6Z"/><path class="cls-2" d="M274.49,62.94V53.12h1.31V63c0,.42.18.58.37.58a1.11,1.11,0,0,0,.29,0l.18,1a1.77,1.77,0,0,1-.75.13C274.89,64.7,274.49,64.08,274.49,62.94Z"/><path class="cls-2" d="M277.7,63.63l.66-.88a3.5,3.5,0,0,0,2.29.93c1,0,1.54-.54,1.54-1.22s-.93-1.15-1.78-1.47c-1.1-.4-2.32-.93-2.32-2.24s1-2.21,2.67-2.21a3.88,3.88,0,0,1,2.42.88l-.62.83a2.89,2.89,0,0,0-1.78-.69c-1,0-1.42.53-1.42,1.12s.85,1,1.73,1.34c1.12.42,2.37.88,2.37,2.35,0,1.26-1,2.32-2.85,2.32A4.68,4.68,0,0,1,277.7,63.63Z"/><path class="cls-2" d="M284.41,63.63l.66-.88a3.5,3.5,0,0,0,2.29.93c1,0,1.54-.54,1.54-1.22S288,61.31,287.11,61c-1.1-.4-2.32-.93-2.32-2.24s1-2.21,2.67-2.21a3.88,3.88,0,0,1,2.42.88l-.62.83a2.89,2.89,0,0,0-1.78-.69c-1,0-1.42.53-1.42,1.12s.85,1,1.73,1.34c1.12.42,2.37.88,2.37,2.35,0,1.26-1,2.32-2.85,2.32A4.68,4.68,0,0,1,284.41,63.63Z"/><path class="cls-2" d="M291.88,62.11V57.81h-1.15v-1l1.22-.08.16-2.18h1.1v2.18h2.1v1.07h-2.1v4.32c0,1,.3,1.5,1.2,1.5a2.82,2.82,0,0,0,.88-.21l.26,1a4.8,4.8,0,0,1-1.44.29C292.44,64.7,291.88,63.65,291.88,62.11Z"/><path class="cls-2" d="M296.9,63.71a1,1,0,1,1,1.9,0,1,1,0,1,1-1.9,0Z"/><path class="cls-2" d="M300.92,54.28a.91.91,0,0,1,1.82,0,.91.91,0,0,1-1.82,0Zm.24,2.45h1.31v7.78h-1.31Z"/><path class="cls-2" d="M304.52,60.64c0-2.61,1.7-4.1,3.6-4.1s3.6,1.49,3.6,4.1-1.7,4.07-3.6,4.07S304.52,63.22,304.52,60.64Zm5.84,0c0-1.79-.9-3-2.24-3s-2.24,1.22-2.24,3,.91,3,2.24,3S310.36,62.42,310.36,60.64Z"/><path class="cls-2" d="M316.2,61.28,319.57,60l2.15-.8v-.06l-2.15-.8-3.38-1.25V56l6.87,2.69v1.06l-6.87,2.69Z"/><path class="cls-2" d="M328.25,54h1.33v9.36h4.59v1.14h-5.92Z"/><path class="cls-2" d="M334.9,63.15l.8-.93a4.11,4.11,0,0,0,2.9,1.31c1.38,0,2.19-.69,2.19-1.71S340,60.41,339,60l-1.5-.66a3,3,0,0,1-2.13-2.71c0-1.6,1.39-2.79,3.3-2.79a4.36,4.36,0,0,1,3.1,1.3l-.72.86a3.35,3.35,0,0,0-2.38-1c-1.17,0-2,.59-2,1.54s.91,1.39,1.75,1.74l1.49.64c1.22.53,2.16,1.25,2.16,2.8s-1.36,3-3.57,3A5.09,5.09,0,0,1,334.9,63.15Z"/><path class="cls-2" d="M343.22,63.15l.8-.93a4.11,4.11,0,0,0,2.9,1.31c1.38,0,2.19-.69,2.19-1.71s-.75-1.41-1.74-1.86l-1.5-.66a3,3,0,0,1-2.13-2.71c0-1.6,1.39-2.79,3.3-2.79a4.36,4.36,0,0,1,3.1,1.3l-.72.86A3.35,3.35,0,0,0,347,55c-1.17,0-2,.59-2,1.54s.91,1.39,1.75,1.74l1.49.64c1.22.53,2.16,1.25,2.16,2.8s-1.36,3-3.57,3A5.09,5.09,0,0,1,343.22,63.15Z"/><path class="cls-2" d="M354.39,55.13h-3.17V54h7.68v1.12h-3.17v9.38h-1.34Z"/><path class="cls-2" d="M363.22,63.15l.8-.93a4.11,4.11,0,0,0,2.9,1.31c1.38,0,2.19-.69,2.19-1.71s-.75-1.41-1.74-1.86l-1.5-.66a3,3,0,0,1-2.13-2.71c0-1.6,1.39-2.79,3.3-2.79a4.36,4.36,0,0,1,3.1,1.3l-.72.86A3.35,3.35,0,0,0,367,55c-1.17,0-2,.59-2,1.54s.91,1.39,1.75,1.74l1.49.64c1.22.53,2.16,1.25,2.16,2.8s-1.36,3-3.57,3A5.09,5.09,0,0,1,363.22,63.15Z"/><path class="cls-2" d="M371.83,60.64a3.77,3.77,0,0,1,3.75-4.1,3.23,3.23,0,0,1,2.27.91l-.67.86a2.28,2.28,0,0,0-1.55-.69c-1.41,0-2.43,1.22-2.43,3s1,3,2.4,3a2.77,2.77,0,0,0,1.82-.78l.58.88a3.8,3.8,0,0,1-2.51,1C373.41,64.7,371.83,63.22,371.83,60.64Z"/><path class="cls-2" d="M379.46,54.28a.91.91,0,0,1,1.82,0,.91.91,0,0,1-1.82,0Zm.24,2.45H381v7.78H379.7Z"/><path class="cls-2" d="M383.06,60.64c0-2.54,1.71-4.1,3.49-4.1,2,0,3.11,1.42,3.11,3.65a5.06,5.06,0,0,1,0,.75h-5.25A2.58,2.58,0,0,0,387,63.65a3.51,3.51,0,0,0,1.94-.61l.46.86a4.63,4.63,0,0,1-2.56.8A3.72,3.72,0,0,1,383.06,60.64ZM388.5,60c0-1.57-.7-2.42-1.92-2.42A2.4,2.4,0,0,0,384.34,60Z"/><path class="cls-2" d="M391.57,56.73h1.09l.11,1.12h0a3.67,3.67,0,0,1,2.61-1.31c1.63,0,2.37,1.06,2.37,3v4.93h-1.31V59.76c0-1.46-.45-2.08-1.47-2.08-.8,0-1.34.42-2.13,1.2v5.63h-1.31Z"/><path class="cls-2" d="M399.75,60.64a3.77,3.77,0,0,1,3.75-4.1,3.23,3.23,0,0,1,2.27.91l-.67.86a2.28,2.28,0,0,0-1.55-.69c-1.41,0-2.43,1.22-2.43,3s1,3,2.4,3a2.77,2.77,0,0,0,1.82-.78l.58.88a3.8,3.8,0,0,1-2.51,1C401.33,64.7,399.75,63.22,399.75,60.64Z"/><path class="cls-2" d="M406.71,60.64c0-2.54,1.71-4.1,3.49-4.1,2,0,3.11,1.42,3.11,3.65a5.06,5.06,0,0,1,0,.75H408a2.58,2.58,0,0,0,2.59,2.71,3.51,3.51,0,0,0,1.94-.61l.46.86a4.63,4.63,0,0,1-2.56.8A3.72,3.72,0,0,1,406.71,60.64Zm5.44-.64c0-1.57-.7-2.42-1.92-2.42A2.4,2.4,0,0,0,408,60Z"/><path class="cls-2" d="M418.55,54h3c2.35,0,3.94.78,3.94,3.09s-1.57,3.25-3.87,3.25h-1.73v4.16h-1.33Zm2.9,5.25c1.82,0,2.71-.67,2.71-2.16s-.93-2-2.77-2h-1.5v4.18Z"/><path class="cls-2" d="M427.24,54.28a.91.91,0,0,1,1.82,0,.91.91,0,0,1-1.82,0Zm.24,2.45h1.31v7.78h-1.31Z"/><path class="cls-2" d="M431.41,56.73h1.09l.11.9h0a4,4,0,0,1,2.48-1.09c2,0,3.07,1.55,3.07,4,0,2.64-1.58,4.19-3.36,4.19a3.61,3.61,0,0,1-2.16-.9l0,1.36v2.63h-1.31Zm5.44,3.78c0-1.71-.58-2.87-2-2.87a3.28,3.28,0,0,0-2.08,1.06v4.08a3.08,3.08,0,0,0,1.9.82C435.91,63.6,436.85,62.43,436.85,60.51Z"/><path class="cls-2" d="M439.72,60.64c0-2.54,1.71-4.1,3.49-4.1,2,0,3.11,1.42,3.11,3.65a5.06,5.06,0,0,1,0,.75H441a2.58,2.58,0,0,0,2.59,2.71,3.51,3.51,0,0,0,1.94-.61l.46.86a4.63,4.63,0,0,1-2.56.8A3.72,3.72,0,0,1,439.72,60.64Zm5.44-.64c0-1.57-.7-2.42-1.92-2.42A2.4,2.4,0,0,0,441,60Z"/><path class="cls-2" d="M448.23,62.94V53.12h1.31V63c0,.42.18.58.37.58a1.11,1.11,0,0,0,.29,0l.18,1a1.77,1.77,0,0,1-.75.13C448.63,64.7,448.23,64.08,448.23,62.94Z"/><path class="cls-2" d="M452.07,54.28a.91.91,0,0,1,1.82,0,.91.91,0,0,1-1.82,0Zm.24,2.45h1.31v7.78h-1.31Z"/><path class="cls-2" d="M456.24,56.73h1.09l.11,1.12h0a3.67,3.67,0,0,1,2.61-1.31c1.63,0,2.37,1.06,2.37,3v4.93h-1.31V59.76c0-1.46-.45-2.08-1.47-2.08-.8,0-1.34.42-2.13,1.2v5.63h-1.31Z"/><path class="cls-2" d="M464.42,60.64c0-2.54,1.71-4.1,3.49-4.1,2,0,3.11,1.42,3.11,3.65a5.06,5.06,0,0,1,0,.75h-5.25a2.58,2.58,0,0,0,2.59,2.71,3.51,3.51,0,0,0,1.94-.61l.46.86a4.63,4.63,0,0,1-2.56.8A3.72,3.72,0,0,1,464.42,60.64Zm5.44-.64c0-1.57-.7-2.42-1.92-2.42A2.4,2.4,0,0,0,465.7,60Z"/><path class="cls-2" d="M472.07,63.63l.66-.88a3.5,3.5,0,0,0,2.29.93c1,0,1.54-.54,1.54-1.22s-.93-1.15-1.78-1.47c-1.1-.4-2.32-.93-2.32-2.24s1-2.21,2.67-2.21a3.88,3.88,0,0,1,2.42.88l-.62.83a2.89,2.89,0,0,0-1.78-.69c-1,0-1.42.53-1.42,1.12s.85,1,1.73,1.34c1.12.42,2.37.88,2.37,2.35,0,1.26-1,2.32-2.85,2.32A4.68,4.68,0,0,1,472.07,63.63Z"/><path class="cls-2" d="M482.07,61.28,485.44,60l2.15-.8v-.06l-2.15-.8-3.38-1.25V56l6.87,2.69v1.06l-6.87,2.69Z"/><path class="cls-2" d="M494.11,54h3c2.35,0,3.94.78,3.94,3.09s-1.57,3.25-3.87,3.25h-1.73v4.16h-1.33Zm2.9,5.25c1.82,0,2.71-.67,2.71-2.16s-.93-2-2.77-2h-1.5v4.18Z"/><path class="cls-2" d="M503,56.73h1.09l.11,1.41h0a2.66,2.66,0,0,1,2.21-1.6,1.93,1.93,0,0,1,.83.16l-.26,1.15a2.17,2.17,0,0,0-.75-.13c-.66,0-1.44.48-2,1.79v5H503Z"/><path class="cls-2" d="M507.86,60.64c0-2.61,1.7-4.1,3.6-4.1s3.6,1.49,3.6,4.1-1.7,4.07-3.6,4.07S507.86,63.22,507.86,60.64Zm5.84,0c0-1.79-.9-3-2.24-3s-2.24,1.22-2.24,3,.91,3,2.24,3S513.7,62.42,513.7,60.64Z"/><path class="cls-2" d="M516.53,60.64a3.77,3.77,0,0,1,3.75-4.1,3.23,3.23,0,0,1,2.27.91l-.67.86a2.28,2.28,0,0,0-1.55-.69c-1.41,0-2.43,1.22-2.43,3s1,3,2.4,3a2.76,2.76,0,0,0,1.82-.78l.58.88a3.79,3.79,0,0,1-2.51,1C518.12,64.7,516.53,63.22,516.53,60.64Z"/><path class="cls-2" d="M523.49,60.64c0-2.54,1.71-4.1,3.49-4.1,2,0,3.11,1.42,3.11,3.65a5.07,5.07,0,0,1,0,.75h-5.25a2.58,2.58,0,0,0,2.59,2.71,3.51,3.51,0,0,0,1.94-.61l.46.86a4.63,4.63,0,0,1-2.56.8A3.72,3.72,0,0,1,523.49,60.64Zm5.44-.64c0-1.57-.7-2.42-1.92-2.42A2.4,2.4,0,0,0,524.77,60Z"/><path class="cls-2" d="M531.14,63.63l.66-.88a3.5,3.5,0,0,0,2.29.93c1,0,1.54-.54,1.54-1.22s-.93-1.15-1.78-1.47c-1.1-.4-2.32-.93-2.32-2.24s1-2.21,2.67-2.21a3.88,3.88,0,0,1,2.42.88l-.62.83a2.89,2.89,0,0,0-1.78-.69c-1,0-1.42.53-1.42,1.12s.85,1,1.73,1.34c1.12.42,2.37.88,2.37,2.35,0,1.26-1,2.32-2.85,2.32A4.68,4.68,0,0,1,531.14,63.63Z"/><path class="cls-2" d="M537.84,63.63l.66-.88a3.5,3.5,0,0,0,2.29.93c1,0,1.54-.54,1.54-1.22s-.93-1.15-1.78-1.47c-1.1-.4-2.32-.93-2.32-2.24s1-2.21,2.67-2.21a3.88,3.88,0,0,1,2.42.88l-.62.83a2.89,2.89,0,0,0-1.78-.69c-1,0-1.42.53-1.42,1.12s.85,1,1.73,1.34c1.12.42,2.37.88,2.37,2.35,0,1.26-1,2.32-2.85,2.32A4.68,4.68,0,0,1,537.84,63.63Z"/><path class="cls-2" d="M545.17,54.28a.92.92,0,0,1,1.83,0,.92.92,0,0,1-1.83,0Zm.24,2.45h1.31v7.78h-1.31Z"/><path class="cls-2" d="M549.34,56.73h1.09l.11,1.12h0a3.67,3.67,0,0,1,2.61-1.31c1.63,0,2.37,1.06,2.37,3v4.93h-1.31V59.76c0-1.46-.45-2.08-1.47-2.08-.8,0-1.34.42-2.13,1.2v5.63h-1.31Z"/><path class="cls-2" d="M557.5,66a2.25,2.25,0,0,1,1.14-1.76v-.06a1.44,1.44,0,0,1-.69-1.26,1.82,1.82,0,0,1,.85-1.44v-.06a2.75,2.75,0,0,1,1.92-4.87,3.11,3.11,0,0,1,1.1.19h2.71v1h-1.6a2.26,2.26,0,0,1,.64,1.6A2.67,2.67,0,0,1,560.72,62a2.71,2.71,0,0,1-1.17-.27,1.18,1.18,0,0,0-.5.93c0,.5.32.85,1.38.85h1.5c1.81,0,2.72.56,2.72,1.86s-1.52,2.69-3.94,2.69C558.82,68.1,557.5,67.35,557.5,66Zm5.87-.4c0-.72-.56-1-1.57-1h-1.34a3.78,3.78,0,0,1-1-.13,1.64,1.64,0,0,0-.8,1.31c0,.83.85,1.36,2.26,1.36S563.38,66.42,563.38,65.6Zm-1-6.29a1.66,1.66,0,1,0-3.3,0,1.66,1.66,0,1,0,3.3,0Z"/><path class="cls-2" d="M568.59,61.28,572,60l2.14-.8v-.06l-2.14-.8-3.38-1.25V56l6.87,2.69v1.06l-6.87,2.69Z"/><path class="cls-2" d="M579.89,54H582l1.86,5.12c.22.66.45,1.36.67,2h.06c.22-.69.43-1.39.66-2L587,54h2.11V64.51h-1.71V59.73c0-1,.14-2.37.24-3.33h-.06l-.85,2.43-1.71,4.71H584l-1.73-4.71-.83-2.43h-.06c.08,1,.24,2.35.24,3.33v4.79h-1.68Z"/><path class="cls-2" d="M591.57,61.58V56.65h1.84v4.69c0,1.3.37,1.78,1.22,1.78.69,0,1.15-.32,1.75-1.09V56.65h1.84v7.86h-1.5l-.14-1.15h0A3.2,3.2,0,0,1,594,64.7C592.31,64.7,591.57,63.57,591.57,61.58Z"/><path class="cls-2" d="M600.54,62.5V53.21h1.84v9.38c0,.45.21.61.4.61a1.09,1.09,0,0,0,.29,0l.24,1.38a2.52,2.52,0,0,1-1,.16C601,64.7,600.54,63.86,600.54,62.5Z"/><path class="cls-2" d="M605.15,61.85V58.11H604V56.73l1.22-.08.22-2.14H607v2.14h2v1.46h-2v3.75c0,.93.35,1.38,1.1,1.38a2.25,2.25,0,0,0,.82-.18l.32,1.36a5,5,0,0,1-1.6.29C605.83,64.7,605.15,63.55,605.15,61.85Z"/><path class="cls-2" d="M610.45,54.24a1.14,1.14,0,1,1,1.14,1A1.06,1.06,0,0,1,610.45,54.24Zm.21,2.42h1.84v7.86h-1.84Z"/><path class="cls-2" d="M614.35,59.81h3.81v1.34h-3.81Z"/><path class="cls-2" d="M619.49,60.59a3.82,3.82,0,0,1,3.62-4.13c2.13,0,3.25,1.54,3.25,3.73a4.3,4.3,0,0,1-.08.9h-5a2.25,2.25,0,0,0,2.32,2.19,3.28,3.28,0,0,0,1.83-.58l.62,1.15a5,5,0,0,1-2.69.85A3.79,3.79,0,0,1,619.49,60.59Zm5.27-.75c0-1.22-.53-2-1.6-2a2,2,0,0,0-1.89,2Z"/><path class="cls-2" d="M628.11,56.65h1.52l.13.83h.06a3.83,3.83,0,0,1,2.37-1c2,0,3.09,1.57,3.09,4,0,2.69-1.62,4.24-3.36,4.24a3.18,3.18,0,0,1-2-.86l0,1.31v2.47h-1.84Zm5.27,3.83c0-1.57-.51-2.5-1.7-2.5a2.51,2.51,0,0,0-1.73.88v3.67a2.49,2.49,0,0,0,1.58.66C632.58,63.18,633.38,62.26,633.38,60.48Z"/><path class="cls-2" d="M636.62,60.59a3.76,3.76,0,1,1,7.47,0,3.75,3.75,0,1,1-7.47,0Zm5.59,0c0-1.58-.7-2.63-1.86-2.63s-1.84,1-1.84,2.63.69,2.61,1.84,2.61S642.21,62.16,642.21,60.59Z"/><path class="cls-2" d="M645.41,60.59a3.88,3.88,0,0,1,3.94-4.13,3.39,3.39,0,0,1,2.3.88l-.9,1.2a1.92,1.92,0,0,0-1.31-.58c-1.26,0-2.14,1-2.14,2.63s.86,2.61,2.1,2.61a2.62,2.62,0,0,0,1.62-.67l.75,1.22a3.93,3.93,0,0,1-2.56,1C647.06,64.7,645.41,63.2,645.41,60.59Z"/><path class="cls-2" d="M653.31,53.21h1.84v2.91l-.06,1.52a3.6,3.6,0,0,1,2.51-1.18c1.68,0,2.42,1.14,2.42,3.12v4.93h-1.84V59.82c0-1.3-.37-1.78-1.23-1.78a2.49,2.49,0,0,0-1.79,1v5.49h-1.84Z"/><path class="cls-2" d="M665.44,56.65H667l.13.83h.06a3.83,3.83,0,0,1,2.37-1c2,0,3.09,1.57,3.09,4,0,2.69-1.62,4.24-3.36,4.24a3.18,3.18,0,0,1-2-.86l0,1.31v2.47h-1.84Zm5.27,3.83c0-1.57-.51-2.5-1.7-2.5a2.51,2.51,0,0,0-1.73.88v3.67a2.49,2.49,0,0,0,1.58.66C669.91,63.18,670.71,62.26,670.71,60.48Z"/><path class="cls-2" d="M674.46,56.65H676l.13,1.39h.06a2.67,2.67,0,0,1,2.23-1.58,2,2,0,0,1,.9.16l-.32,1.6a2.57,2.57,0,0,0-.82-.13c-.62,0-1.38.43-1.86,1.62v4.8h-1.84Z"/><path class="cls-2" d="M679.76,60.59a3.76,3.76,0,1,1,7.47,0,3.75,3.75,0,1,1-7.47,0Zm5.59,0c0-1.58-.7-2.63-1.86-2.63s-1.84,1-1.84,2.63.69,2.61,1.84,2.61S685.35,62.16,685.35,60.59Z"/><path class="cls-2" d="M688.54,60.59a3.88,3.88,0,0,1,3.94-4.13,3.39,3.39,0,0,1,2.3.88l-.9,1.2a1.92,1.92,0,0,0-1.31-.58c-1.26,0-2.14,1-2.14,2.63s.86,2.61,2.1,2.61a2.62,2.62,0,0,0,1.62-.67l.75,1.22a3.93,3.93,0,0,1-2.56,1C690.19,64.7,688.54,63.2,688.54,60.59Z"/><path class="cls-2" d="M695.55,60.59a3.82,3.82,0,0,1,3.62-4.13c2.13,0,3.25,1.54,3.25,3.73a4.3,4.3,0,0,1-.08.9h-5a2.25,2.25,0,0,0,2.32,2.19,3.28,3.28,0,0,0,1.83-.58l.62,1.15a5,5,0,0,1-2.69.85A3.79,3.79,0,0,1,695.55,60.59Zm5.27-.75c0-1.22-.53-2-1.6-2a2,2,0,0,0-1.89,2Z"/><path class="cls-2" d="M703.39,63.62l.86-1.18a3.5,3.5,0,0,0,2.18.88c.85,0,1.25-.4,1.25-.94s-.85-.94-1.68-1.26c-1-.38-2.21-1-2.21-2.29s1.1-2.35,2.87-2.35a4.24,4.24,0,0,1,2.61.94l-.85,1.12a2.92,2.92,0,0,0-1.73-.67c-.78,0-1.15.37-1.15.86s.78.86,1.63,1.17c1.07.4,2.26.91,2.26,2.39s-1.07,2.43-3.06,2.43A5,5,0,0,1,703.39,63.62Z"/><path class="cls-2" d="M710.29,63.62l.86-1.18a3.5,3.5,0,0,0,2.18.88c.85,0,1.25-.4,1.25-.94s-.85-.94-1.68-1.26c-1-.38-2.21-1-2.21-2.29s1.1-2.35,2.87-2.35a4.24,4.24,0,0,1,2.61.94l-.85,1.12a2.92,2.92,0,0,0-1.73-.67c-.78,0-1.15.37-1.15.86s.78.86,1.63,1.17c1.07.4,2.26.91,2.26,2.39s-1.07,2.43-3.06,2.43A5,5,0,0,1,710.29,63.62Z"/><path class="cls-2" d="M717.76,54.24a1.14,1.14,0,1,1,1.14,1A1.06,1.06,0,0,1,717.76,54.24Zm.21,2.42h1.84v7.86H718Z"/><path class="cls-2" d="M722.16,56.65h1.52l.13,1.06h.06a3.65,3.65,0,0,1,2.58-1.25c1.68,0,2.42,1.14,2.42,3.12v4.93H727V59.82c0-1.3-.37-1.78-1.23-1.78A2.49,2.49,0,0,0,724,59v5.49h-1.84Z"/><path class="cls-2" d="M730.59,65.94a2,2,0,0,1,1.12-1.68v-.06a1.48,1.48,0,0,1-.7-1.31,1.9,1.9,0,0,1,.86-1.46v-.06a2.65,2.65,0,0,1-1-2.08A2.85,2.85,0,0,1,734,56.46a3.55,3.55,0,0,1,1.15.19h2.82V58h-1.44a2.1,2.1,0,0,1,.45,1.33A2.67,2.67,0,0,1,734,62a2.9,2.9,0,0,1-1.07-.21.91.91,0,0,0-.38.75c0,.45.32.72,1.28.72h1.39c1.89,0,2.88.58,2.88,1.94,0,1.55-1.63,2.77-4.19,2.77C732,68,730.59,67.31,730.59,65.94Zm5.68-.42c0-.61-.5-.78-1.39-.78h-1.07a4.16,4.16,0,0,1-1.07-.11,1.32,1.32,0,0,0-.61,1c0,.7.77,1.12,2,1.12S736.27,66.19,736.27,65.52Zm-1-6.24a1.38,1.38,0,1,0-2.74,0,1.38,1.38,0,1,0,2.74,0Z"/><path class="cls-2" d="M23.52,372.17h3.15c3.6,0,5.73,1.94,5.73,5.83s-2.12,5.94-5.62,5.94H23.52Zm3,10.08c2.38,0,3.73-1.35,3.73-4.25s-1.35-4.14-3.73-4.14H25.6v8.39Z"/><path class="cls-2" d="M34.35,372.38a1.28,1.28,0,1,1,1.28,1.17A1.19,1.19,0,0,1,34.35,372.38Zm.23,2.72h2.07v8.84H34.59Z"/><path class="cls-2" d="M38.42,382.93l1-1.33a3.93,3.93,0,0,0,2.45,1c1,0,1.4-.45,1.4-1.06s-1-1.06-1.89-1.42c-1.17-.43-2.48-1.1-2.48-2.58s1.24-2.65,3.22-2.65A4.77,4.77,0,0,1,45,375.95l-1,1.26a3.29,3.29,0,0,0-1.94-.76c-.88,0-1.3.41-1.3,1s.88,1,1.84,1.31c1.21.45,2.54,1,2.54,2.68s-1.21,2.74-3.44,2.74A5.59,5.59,0,0,1,38.42,382.93Z"/><path class="cls-2" d="M46.48,379.53a4.36,4.36,0,0,1,4.43-4.65,3.81,3.81,0,0,1,2.59,1l-1,1.35a2.16,2.16,0,0,0-1.48-.65c-1.42,0-2.41,1.17-2.41,3s1,2.93,2.36,2.93a3,3,0,0,0,1.82-.76l.85,1.37a4.41,4.41,0,0,1-2.88,1.08C48.34,384.16,46.48,382.46,46.48,379.53Z"/><path class="cls-2" d="M55.29,380.65V375.1h2.07v5.28c0,1.46.41,2,1.37,2,.77,0,1.3-.36,2-1.22v-6h2.07v8.84H61.06l-.16-1.3h-.05A3.6,3.6,0,0,1,58,384.16C56.11,384.16,55.29,382.88,55.29,380.65Z"/><path class="cls-2" d="M64.5,382.93l1-1.33a3.93,3.93,0,0,0,2.45,1c1,0,1.4-.45,1.4-1.06s-1-1.06-1.89-1.42c-1.17-.43-2.48-1.1-2.48-2.58s1.24-2.65,3.22-2.65a4.77,4.77,0,0,1,2.94,1.06l-1,1.26a3.29,3.29,0,0,0-1.94-.76c-.88,0-1.3.41-1.3,1s.88,1,1.84,1.31c1.21.45,2.54,1,2.54,2.68s-1.21,2.74-3.44,2.74A5.59,5.59,0,0,1,64.5,382.93Z"/><path class="cls-2" d="M72.26,382.93l1-1.33a3.93,3.93,0,0,0,2.45,1c1,0,1.4-.45,1.4-1.06s-1-1.06-1.89-1.42c-1.17-.43-2.48-1.1-2.48-2.58s1.24-2.65,3.22-2.65a4.77,4.77,0,0,1,2.94,1.06l-1,1.26a3.29,3.29,0,0,0-1.94-.76c-.88,0-1.3.41-1.3,1s.88,1,1.84,1.31c1.21.45,2.54,1,2.54,2.68s-1.21,2.74-3.44,2.74A5.59,5.59,0,0,1,72.26,382.93Z"/><path class="cls-2" d="M22.85,401.18c0-2.93,2-4.61,4.21-4.61a3.63,3.63,0,0,1,2.56,1l-.76,1a2.57,2.57,0,0,0-1.75-.77c-1.58,0-2.74,1.37-2.74,3.38s1.1,3.35,2.7,3.35a3.11,3.11,0,0,0,2.05-.88l.65,1A4.27,4.27,0,0,1,27,405.76C24.63,405.76,22.85,404.08,22.85,401.18Z"/><path class="cls-2" d="M30.68,401.18c0-2.93,1.91-4.61,4.05-4.61s4.05,1.67,4.05,4.61-1.91,4.57-4.05,4.57S30.68,404.08,30.68,401.18Zm6.57,0c0-2-1-3.38-2.52-3.38s-2.52,1.37-2.52,3.38,1,3.35,2.52,3.35S37.25,403.18,37.25,401.18Z"/><path class="cls-2" d="M41.08,396.79h1.22l.13,1.26h.05a3.85,3.85,0,0,1,2.72-1.48,2.3,2.3,0,0,1,2.41,1.67,4.14,4.14,0,0,1,2.88-1.67c1.8,0,2.67,1.19,2.67,3.42v5.55H51.69v-5.35c0-1.64-.52-2.34-1.62-2.34a3.21,3.21,0,0,0-2.2,1.35v6.34H46.4v-5.35c0-1.64-.52-2.34-1.64-2.34a3.28,3.28,0,0,0-2.2,1.35v6.34H41.08Z"/><path class="cls-2" d="M56,396.79h1.22l.13,1.26h.05a3.85,3.85,0,0,1,2.72-1.48,2.3,2.3,0,0,1,2.41,1.67,4.14,4.14,0,0,1,2.88-1.67c1.8,0,2.67,1.19,2.67,3.42v5.55H66.61v-5.35c0-1.64-.52-2.34-1.62-2.34a3.21,3.21,0,0,0-2.2,1.35v6.34H61.32v-5.35c0-1.64-.52-2.34-1.64-2.34a3.28,3.28,0,0,0-2.2,1.35v6.34H56Z"/><path class="cls-2" d="M70.8,402.33v-5.55H72.3v5.35c0,1.64.49,2.34,1.64,2.34.9,0,1.53-.45,2.36-1.48v-6.21h1.48v8.75H76.54l-.13-1.37h-.05a3.7,3.7,0,0,1-2.88,1.58C71.63,405.76,70.8,404.57,70.8,402.33Z"/><path class="cls-2" d="M80.72,396.79h1.22l.13,1.26h.05a4.13,4.13,0,0,1,2.94-1.48c1.84,0,2.66,1.19,2.66,3.42v5.55H86.25v-5.35c0-1.64-.5-2.34-1.66-2.34-.9,0-1.51.47-2.4,1.35v6.34H80.72Z"/><path class="cls-2" d="M90.29,394a1,1,0,0,1,2.05,0,1,1,0,0,1-2.05,0Zm.27,2.75H92v8.75H90.56Z"/><path class="cls-2" d="M95.24,402.84V398h-1.3v-1.12l1.37-.09.18-2.45h1.24v2.45H99.1V398H96.74v4.86c0,1.08.34,1.69,1.35,1.69a3.17,3.17,0,0,0,1-.23l.29,1.12a5.4,5.4,0,0,1-1.62.32C95.88,405.76,95.24,404.57,95.24,402.84Z"/><path class="cls-2" d="M100.19,409.12l.29-1.17a2.59,2.59,0,0,0,.67.13c1,0,1.62-.79,2-1.87l.2-.65-3.51-8.77h1.53l1.78,4.84c.27.76.58,1.66.85,2.47H104c.25-.79.5-1.69.74-2.47l1.57-4.84h1.44l-3.29,9.47c-.61,1.73-1.51,3-3.28,3A2.9,2.9,0,0,1,100.19,409.12Z"/><path class="cls-2" d="M108.55,404.64a1.07,1.07,0,1,1,2.14,0,1.07,1.07,0,1,1-2.14,0Z"/><path class="cls-2" d="M113.33,403.78V392.72h1.48v11.16c0,.47.2.65.41.65a1.27,1.27,0,0,0,.32,0l.2,1.12a2,2,0,0,1-.85.14C113.78,405.76,113.33,405.05,113.33,403.78Z"/><path class="cls-2" d="M117,404.55l.74-1a3.94,3.94,0,0,0,2.57,1c1.15,0,1.73-.61,1.73-1.37s-1-1.3-2-1.66c-1.24-.45-2.61-1-2.61-2.52s1.12-2.49,3-2.49a4.37,4.37,0,0,1,2.72,1l-.7.94a3.25,3.25,0,0,0-2-.77c-1.1,0-1.6.59-1.6,1.26,0,.83,1,1.13,1.94,1.51,1.26.47,2.67,1,2.67,2.65,0,1.42-1.13,2.61-3.21,2.61A5.26,5.26,0,0,1,117,404.55Z"/><path class="cls-2" d="M124.49,404.55l.74-1a3.94,3.94,0,0,0,2.57,1c1.15,0,1.73-.61,1.73-1.37s-1-1.3-2-1.66c-1.24-.45-2.61-1-2.61-2.52s1.12-2.49,3-2.49a4.37,4.37,0,0,1,2.72,1l-.7.94a3.25,3.25,0,0,0-2-.77c-1.1,0-1.6.59-1.6,1.26,0,.83,1,1.13,1.94,1.51,1.26.47,2.67,1,2.67,2.65,0,1.42-1.13,2.61-3.21,2.61A5.26,5.26,0,0,1,124.49,404.55Z"/><path class="cls-2" d="M132.9,402.84V398h-1.3v-1.12l1.37-.09.18-2.45h1.24v2.45h2.36V398H134.4v4.86c0,1.08.34,1.69,1.35,1.69a3.17,3.17,0,0,0,1-.23l.29,1.12a5.4,5.4,0,0,1-1.62.32C133.53,405.76,132.9,404.57,132.9,402.84Z"/><path class="cls-2" d="M138.55,404.64a1.07,1.07,0,1,1,2.14,0,1.07,1.07,0,1,1-2.14,0Z"/><path class="cls-2" d="M142.49,401.18c0-2.93,1.91-4.61,4.05-4.61s4.05,1.67,4.05,4.61-1.91,4.57-4.05,4.57S142.49,404.08,142.49,401.18Zm6.57,0c0-2-1-3.38-2.52-3.38s-2.52,1.37-2.52,3.38,1,3.35,2.52,3.35S149.07,403.18,149.07,401.18Z"/><path class="cls-2" d="M152.9,396.79h1.22l.13,1.58h.05a3,3,0,0,1,2.48-1.8,2.16,2.16,0,0,1,.94.18l-.29,1.3a2.45,2.45,0,0,0-.85-.14c-.74,0-1.62.54-2.21,2v5.62H152.9Z"/><path class="cls-2" d="M158.3,407.21a2.53,2.53,0,0,1,1.28-2v-.07a1.62,1.62,0,0,1-.77-1.42,2,2,0,0,1,1-1.62V402a3.09,3.09,0,0,1,2.16-5.47,3.5,3.5,0,0,1,1.24.22h3v1.13h-1.8a2.54,2.54,0,0,1,.72,1.8,3,3,0,0,1-3.21,3,3.06,3.06,0,0,1-1.31-.31,1.33,1.33,0,0,0-.56,1c0,.56.36,1,1.55,1h1.69c2,0,3.06.63,3.06,2.09,0,1.62-1.71,3-4.43,3C159.77,409.57,158.3,408.73,158.3,407.21Zm6.61-.45c0-.81-.63-1.08-1.76-1.08h-1.51a4.25,4.25,0,0,1-1.13-.14,1.84,1.84,0,0,0-.9,1.48c0,.94,1,1.53,2.54,1.53S164.91,407.68,164.91,406.76Zm-1.13-7.08a1.86,1.86,0,1,0-3.71,0,1.87,1.87,0,1,0,3.71,0Z"/><path class="cls-2" d="M23.52,437h2.36L28,442.73c.25.74.5,1.53.76,2.3h.07c.25-.77.49-1.57.74-2.3l2-5.76h2.38v11.78H32v-5.38c0-1.1.16-2.67.27-3.75h-.07l-1,2.74-1.93,5.29H28.09l-1.94-5.29-.94-2.74h-.07c.09,1.08.27,2.65.27,3.75v5.38H23.52Z"/><path class="cls-2" d="M36.17,444.33c0-3,2-4.65,4.2-4.65s4.21,1.69,4.21,4.65A4.27,4.27,0,0,1,40.36,449C38.17,449,36.17,447.26,36.17,444.33Zm6.28,0c0-1.78-.79-3-2.09-3s-2.07,1.17-2.07,3,.77,2.93,2.07,2.93S42.45,446.09,42.45,444.33Z"/><path class="cls-2" d="M46.63,439.9h1.71l.14,1.57h.07a3,3,0,0,1,2.5-1.78,2.25,2.25,0,0,1,1,.18l-.36,1.8a2.9,2.9,0,0,0-.92-.14c-.7,0-1.55.49-2.09,1.82v5.4H46.63Z"/><path class="cls-2" d="M52.58,444.33c0-2.88,2-4.65,4.07-4.65,2.39,0,3.65,1.73,3.65,4.2a4.8,4.8,0,0,1-.09,1H54.6a2.53,2.53,0,0,0,2.61,2.47,3.69,3.69,0,0,0,2.05-.65L60,448a5.57,5.57,0,0,1-3,1A4.26,4.26,0,0,1,52.58,444.33Zm5.92-.85c0-1.37-.59-2.2-1.8-2.2a2.22,2.22,0,0,0-2.12,2.2Z"/><path class="cls-2" d="M66.07,437h2.09v10h4.9v1.76h-7Z"/><path class="cls-2" d="M73.84,447.23l1.22-1.42a4.68,4.68,0,0,0,3.06,1.33c1.33,0,2.05-.59,2.05-1.51s-.76-1.28-1.82-1.73l-1.62-.7a3.39,3.39,0,0,1-2.38-3.13c0-1.87,1.66-3.31,4-3.31a5.2,5.2,0,0,1,3.62,1.49l-1.06,1.33a3.84,3.84,0,0,0-2.56-1c-1.12,0-1.85.52-1.85,1.39s.9,1.26,1.87,1.66l1.6.67a3.29,3.29,0,0,1,2.38,3.19c0,1.91-1.58,3.49-4.23,3.49A6.1,6.1,0,0,1,73.84,447.23Z"/><path class="cls-2" d="M83.36,447.23l1.22-1.42a4.68,4.68,0,0,0,3.06,1.33c1.33,0,2.05-.59,2.05-1.51s-.76-1.28-1.82-1.73l-1.62-.7a3.39,3.39,0,0,1-2.38-3.13c0-1.87,1.66-3.31,4-3.31a5.2,5.2,0,0,1,3.62,1.49l-1.06,1.33a3.84,3.84,0,0,0-2.56-1c-1.12,0-1.85.52-1.85,1.39s.9,1.26,1.87,1.66l1.6.67a3.29,3.29,0,0,1,2.38,3.19c0,1.91-1.58,3.49-4.23,3.49A6.1,6.1,0,0,1,83.36,447.23Z"/><path class="cls-2" d="M96,438.73H92.6V437h8.89v1.76h-3.4v10H96Z"/><path class="cls-2" d="M106.33,444.33c0-2.88,1.82-4.65,3.75-4.65a3.26,3.26,0,0,1,2.32,1l-.07-1.42V436h2.07v12.71h-1.71l-.14-1h-.07A3.68,3.68,0,0,1,110,449C107.76,449,106.33,447.25,106.33,444.33Zm6,1.93v-4.12a2.64,2.64,0,0,0-1.8-.74c-1.13,0-2.05,1.06-2.05,2.92s.72,2.94,2,2.94A2.39,2.39,0,0,0,112.33,446.26Z"/><path class="cls-2" d="M116.45,444.33c0-3,2-4.65,4.2-4.65s4.21,1.69,4.21,4.65a4.27,4.27,0,0,1-4.21,4.63C118.45,449,116.45,447.26,116.45,444.33Zm6.28,0c0-1.78-.79-3-2.09-3s-2.07,1.17-2.07,3,.77,2.93,2.07,2.93S122.73,446.09,122.73,444.33Z"/><path class="cls-2" d="M126.33,444.33a4.36,4.36,0,0,1,4.43-4.65,3.81,3.81,0,0,1,2.59,1l-1,1.35a2.16,2.16,0,0,0-1.48-.65c-1.42,0-2.41,1.17-2.41,3s1,2.93,2.36,2.93a3,3,0,0,0,1.82-.76l.85,1.37A4.42,4.42,0,0,1,130.6,449C128.19,449,126.33,447.26,126.33,444.33Z"/><path class="cls-2" d="M134.34,447.73l1-1.33a3.93,3.93,0,0,0,2.45,1c1,0,1.4-.45,1.4-1.06s-1-1.06-1.89-1.42c-1.17-.43-2.48-1.1-2.48-2.58s1.24-2.65,3.22-2.65a4.77,4.77,0,0,1,2.93,1.06L140,442a3.29,3.29,0,0,0-1.94-.76c-.88,0-1.3.41-1.3,1s.88,1,1.84,1.31c1.21.45,2.54,1,2.54,2.68s-1.21,2.74-3.44,2.74A5.6,5.6,0,0,1,134.34,447.73Z"/><path class="cls-2" d="M23.5,468.58V457.52H25v11.16c0,.47.2.65.41.65a1.27,1.27,0,0,0,.32,0l.2,1.12a2,2,0,0,1-.85.14C23.95,470.56,23.5,469.85,23.5,468.58Z"/><path class="cls-2" d="M27.12,469.35l.74-1a3.94,3.94,0,0,0,2.57,1c1.15,0,1.73-.61,1.73-1.37s-1-1.3-2-1.66c-1.24-.45-2.61-1-2.61-2.52s1.12-2.49,3-2.49a4.37,4.37,0,0,1,2.72,1l-.7.94a3.25,3.25,0,0,0-2-.77c-1.1,0-1.6.59-1.6,1.26,0,.83,1,1.13,1.94,1.51,1.26.47,2.67,1,2.67,2.65,0,1.42-1.13,2.61-3.21,2.61A5.26,5.26,0,0,1,27.12,469.35Z"/><path class="cls-2" d="M34.66,469.35l.74-1a3.94,3.94,0,0,0,2.57,1c1.15,0,1.73-.61,1.73-1.37s-1-1.3-2-1.66c-1.24-.45-2.61-1-2.61-2.52s1.12-2.49,3-2.49a4.37,4.37,0,0,1,2.72,1l-.7.94a3.25,3.25,0,0,0-2-.77c-1.1,0-1.6.59-1.6,1.26,0,.83,1,1.13,1.94,1.51,1.26.47,2.67,1,2.67,2.65,0,1.42-1.13,2.61-3.21,2.61A5.26,5.26,0,0,1,34.66,469.35Z"/><path class="cls-2" d="M43.06,467.64V462.8h-1.3v-1.12l1.37-.09.18-2.45h1.24v2.45h2.36v1.21H44.56v4.86c0,1.08.34,1.69,1.35,1.69a3.17,3.17,0,0,0,1-.23l.29,1.12a5.4,5.4,0,0,1-1.62.32C43.69,470.56,43.06,469.37,43.06,467.64Z"/><path class="cls-2" d="M48.71,469.44a1.07,1.07,0,1,1,2.14,0,1.07,1.07,0,1,1-2.14,0Z"/><path class="cls-2" d="M53.23,458.83a1,1,0,0,1,2.05,0,1,1,0,0,1-2.05,0Zm.27,2.75H55v8.75H53.5Z"/><path class="cls-2" d="M57.28,466c0-2.93,1.91-4.61,4.05-4.61S65.38,463,65.38,466s-1.91,4.57-4.05,4.57S57.28,468.88,57.28,466Zm6.57,0c0-2-1-3.38-2.52-3.38S58.81,464,58.81,466s1,3.35,2.52,3.35S63.85,468,63.85,466Z"/><path class="cls-2" d="M274.74,629.17c0-6.85,4.29-10.91,9.57-10.91a8.31,8.31,0,0,1,6,2.66l-2,2.4a5.46,5.46,0,0,0-4-1.82c-3.42,0-5.86,2.88-5.86,7.58s2.24,7.65,5.76,7.65a6,6,0,0,0,4.48-2.14l2,2.34a8.44,8.44,0,0,1-6.59,3C278.9,640,274.74,636.11,274.74,629.17Z"/><path class="cls-2" d="M292.92,631.73c0-5.25,3.55-8.26,7.46-8.26s7.49,3,7.49,8.26-3.55,8.22-7.49,8.22S292.92,636.95,292.92,631.73Zm11.17,0c0-3.17-1.41-5.25-3.71-5.25s-3.68,2.08-3.68,5.25,1.38,5.21,3.68,5.21S304.08,634.87,304.08,631.73Z"/><path class="cls-2" d="M311.51,623.86h3l.26,2.14h.13a6.64,6.64,0,0,1,4.8-2.53,4.27,4.27,0,0,1,4.35,2.82c1.5-1.6,3.07-2.82,5.06-2.82,3.33,0,4.86,2.27,4.86,6.24v9.86h-3.71v-9.37c0-2.59-.77-3.55-2.4-3.55-1,0-2.08.64-3.3,2v11h-3.68v-9.37c0-2.59-.77-3.55-2.43-3.55-1,0-2.08.64-3.3,2v11h-3.68Z"/><path class="cls-2" d="M338.48,623.86h3l.26,2.14h.13a6.64,6.64,0,0,1,4.8-2.53,4.27,4.27,0,0,1,4.35,2.82c1.5-1.6,3.07-2.82,5.06-2.82,3.33,0,4.86,2.27,4.86,6.24v9.86h-3.71v-9.37c0-2.59-.77-3.55-2.4-3.55-1,0-2.08.64-3.3,2v11h-3.68v-9.37c0-2.59-.77-3.55-2.43-3.55-1,0-2.08.64-3.3,2v11h-3.68Z"/><path class="cls-2" d="M364.63,635.35c0-3.36,2.78-5.12,9.25-5.82-.06-1.66-.74-3.07-2.88-3.07a9,9,0,0,0-4.42,1.54l-1.34-2.46a12.29,12.29,0,0,1,6.46-2c3.9,0,5.86,2.4,5.86,6.78v9.31h-3l-.26-1.73h-.13a7.65,7.65,0,0,1-4.86,2.11A4.39,4.39,0,0,1,364.63,635.35Zm9.25,0v-3.52c-4.29.54-5.7,1.66-5.7,3.23,0,1.41,1,2,2.27,2A5,5,0,0,0,373.88,635.35Z"/><path class="cls-2" d="M382,623.86h3l.26,2.11h.13a7.3,7.3,0,0,1,5.15-2.5c3.36,0,4.83,2.27,4.83,6.24v9.86H391.7v-9.37c0-2.59-.74-3.55-2.46-3.55-1.38,0-2.27.67-3.58,2v11H382Z"/><path class="cls-2" d="M398.93,631.73c0-5.12,3.23-8.26,6.66-8.26a5.8,5.8,0,0,1,4.13,1.73l-.13-2.53V617h3.68v22.59h-3l-.26-1.7h-.13A6.55,6.55,0,0,1,405.4,640C401.46,640,398.93,636.91,398.93,631.73Zm10.66,3.42v-7.33a4.68,4.68,0,0,0-3.2-1.31c-2,0-3.65,1.89-3.65,5.18s1.28,5.22,3.55,5.22A4.24,4.24,0,0,0,409.59,635.15Z"/><path class="cls-2" d="M424.34,635.54V617H428v18.75c0,.9.42,1.22.8,1.22a2.22,2.22,0,0,0,.58-.06l.48,2.75a5,5,0,0,1-2,.32C425.3,640,424.34,638.26,424.34,635.54Z"/><path class="cls-2" d="M432.6,619a2.28,2.28,0,1,1,2.27,2.08A2.11,2.11,0,0,1,432.6,619Zm.42,4.83h3.68v15.71H433Z"/><path class="cls-2" d="M441.4,623.86h3l.26,2.11h.13a7.3,7.3,0,0,1,5.15-2.5c3.36,0,4.83,2.27,4.83,6.24v9.86h-3.68v-9.37c0-2.59-.74-3.55-2.46-3.55-1.38,0-2.27.67-3.58,2v11H441.4Z"/><path class="cls-2" d="M458.29,631.73c0-5.12,3.55-8.26,7.23-8.26,4.26,0,6.5,3.07,6.5,7.46a8.59,8.59,0,0,1-.16,1.79h-10c.32,2.78,2.11,4.38,4.64,4.38a6.57,6.57,0,0,0,3.65-1.15l1.25,2.3A9.91,9.91,0,0,1,466,640C461.68,640,458.29,636.91,458.29,631.73Zm10.53-1.5c0-2.43-1.06-3.9-3.2-3.9-1.86,0-3.46,1.38-3.78,3.9Z"/><path class="cls-2" d="M482.48,634.26v-7.49h-2.24V624l2.43-.16.45-4.29h3.07v4.29h4v2.91h-4v7.49c0,1.86.7,2.75,2.21,2.75a4.52,4.52,0,0,0,1.63-.35l.64,2.72a10,10,0,0,1-3.2.58C483.83,640,482.48,637.65,482.48,634.26Z"/><path class="cls-2" d="M492,635.35c0-3.36,2.78-5.12,9.25-5.82-.06-1.66-.74-3.07-2.88-3.07a9,9,0,0,0-4.42,1.54l-1.34-2.46a12.29,12.29,0,0,1,6.46-2c3.9,0,5.86,2.4,5.86,6.78v9.31h-3l-.26-1.73h-.13a7.65,7.65,0,0,1-4.86,2.11A4.39,4.39,0,0,1,492,635.35Zm9.25,0v-3.52c-4.29.54-5.7,1.66-5.7,3.23,0,1.41,1,2,2.27,2A5,5,0,0,0,501.23,635.35Z"/><path class="cls-2" d="M507.76,637.78l1.73-2.37a7,7,0,0,0,4.35,1.76c1.7,0,2.5-.8,2.5-1.89,0-1.31-1.7-1.89-3.36-2.53-2.08-.77-4.42-2-4.42-4.58s2.21-4.7,5.73-4.7a8.48,8.48,0,0,1,5.21,1.89l-1.7,2.24a5.85,5.85,0,0,0-3.46-1.34c-1.57,0-2.3.74-2.3,1.73,0,1.25,1.57,1.73,3.26,2.34,2.14.8,4.51,1.82,4.51,4.77,0,2.69-2.14,4.86-6.11,4.86A10,10,0,0,1,507.76,637.78Z"/><path class="cls-2" d="M523.12,617h3.62v14.11h.1l5.82-7.23h4l-5.38,6.4,5.92,9.31h-4l-4-6.82-2.46,2.82v4h-3.62Z"/><path class="cls-2" d="M538.26,637.78l1.73-2.37a7,7,0,0,0,4.35,1.76c1.7,0,2.5-.8,2.5-1.89,0-1.31-1.7-1.89-3.36-2.53-2.08-.77-4.42-2-4.42-4.58s2.21-4.7,5.73-4.7a8.48,8.48,0,0,1,5.21,1.89l-1.7,2.24a5.85,5.85,0,0,0-3.46-1.34c-1.57,0-2.3.74-2.3,1.73,0,1.25,1.57,1.73,3.26,2.34,2.14.8,4.51,1.82,4.51,4.77,0,2.69-2.14,4.86-6.11,4.86A10,10,0,0,1,538.26,637.78Z"/><path class="cls-2" d="M273.17,667.33h11.6v7.73h-11.6Z"/><path class="cls-2" d="M284.42,667.33H296v7.73h-11.6Z"/><path class="cls-2" d="M295.67,667.33h11.6v7.73h-11.6Z"/><path class="cls-2" d="M306.92,667.33h11.6v7.73h-11.6Z"/><path class="cls-2" d="M318.17,667.33h11.6v7.73h-11.6Z"/><path class="cls-2" d="M329.42,667.33H341v7.73h-11.6Z"/><path class="cls-2" d="M340.67,667.33h11.6v7.73h-11.6Z"/><path class="cls-2" d="M351.92,667.33h11.6v7.73h-11.6Z"/><path class="cls-2" d="M273.17,688.93h11.6v7.73h-11.6Z"/><path class="cls-2" d="M284.42,688.93H296v7.73h-11.6Z"/><path class="cls-2" d="M295.67,688.93h11.6v7.73h-11.6Z"/><path class="cls-2" d="M306.92,688.93h11.6v7.73h-11.6Z"/><path class="cls-2" d="M318.17,688.93h11.6v7.73h-11.6Z"/><path class="cls-2" d="M329.42,688.93H341v7.73h-11.6Z"/><path class="cls-2" d="M340.67,688.93h11.6v7.73h-11.6Z"/><path class="cls-2" d="M351.92,688.93h11.6v7.73h-11.6Z"/><path class="cls-2" d="M273.17,710.53h11.6v7.73h-11.6Z"/><path class="cls-2" d="M284.42,710.53H296v7.73h-11.6Z"/><path class="cls-2" d="M295.67,710.53h11.6v7.73h-11.6Z"/><path class="cls-2" d="M306.92,710.53h11.6v7.73h-11.6Z"/><path class="cls-2" d="M318.17,710.53h11.6v7.73h-11.6Z"/><path class="cls-2" d="M329.42,710.53H341v7.73h-11.6Z"/><path class="cls-2" d="M340.67,710.53h11.6v7.73h-11.6Z"/><path class="cls-2" d="M351.92,710.53h11.6v7.73h-11.6Z"/><path class="cls-2" d="M363.17,710.53h11.6v7.73h-11.6Z"/><path class="cls-2" d="M374.42,710.53H386v7.73h-11.6Z"/><path class="cls-2" d="M385.67,710.53h11.6v7.73h-11.6Z"/><path class="cls-2" d="M396.92,710.53h11.6v7.73h-11.6Z"/><path class="cls-2" d="M280.05,452.27h-6v-3.14h15.81v3.14h-6v17.79h-3.71Z"/><path class="cls-2" d="M291.41,464.21v-9.86h3.68v9.38c0,2.59.74,3.55,2.43,3.55,1.38,0,2.3-.64,3.49-2.18V454.35h3.68v15.71h-3l-.29-2.3h-.1a6.4,6.4,0,0,1-5.06,2.69C292.89,470.45,291.41,468.18,291.41,464.21Z"/><path class="cls-2" d="M309.91,464.75v-7.49h-2.24v-2.75l2.43-.16.45-4.29h3.07v4.29h4v2.91h-4v7.49c0,1.86.7,2.75,2.21,2.75a4.52,4.52,0,0,0,1.63-.35l.64,2.72a10,10,0,0,1-3.2.58C311.25,470.45,309.91,468.14,309.91,464.75Z"/><path class="cls-2" d="M319.38,462.23c0-5.25,3.55-8.26,7.46-8.26s7.49,3,7.49,8.26-3.55,8.22-7.49,8.22S319.38,467.44,319.38,462.23Zm11.17,0c0-3.17-1.41-5.25-3.71-5.25s-3.68,2.08-3.68,5.25,1.38,5.21,3.68,5.21S330.55,465.36,330.55,462.23Z"/><path class="cls-2" d="M338,454.35h3l.26,2.78h.13c1.12-2,2.78-3.17,4.45-3.17a4,4,0,0,1,1.79.32l-.64,3.2a5.16,5.16,0,0,0-1.63-.26c-1.25,0-2.75.86-3.71,3.23v9.6H338Z"/><path class="cls-2" d="M349.49,449.52a2.28,2.28,0,1,1,2.27,2.08A2.11,2.11,0,0,1,349.49,449.52Zm.42,4.83h3.68v15.71h-3.68Z"/><path class="cls-2" d="M357.46,465.84c0-3.36,2.78-5.12,9.25-5.82-.06-1.66-.74-3.07-2.88-3.07a9,9,0,0,0-4.42,1.54L358.07,456a12.29,12.29,0,0,1,6.46-2c3.9,0,5.86,2.4,5.86,6.78v9.31h-3l-.26-1.73H367a7.65,7.65,0,0,1-4.86,2.11A4.39,4.39,0,0,1,357.46,465.84Zm9.25,0v-3.52c-4.29.54-5.7,1.66-5.7,3.23,0,1.41,1,2,2.27,2A5,5,0,0,0,366.71,465.84Z"/><path class="cls-2" d="M374.8,466V447.47h3.68v18.75c0,.9.42,1.22.8,1.22a2.22,2.22,0,0,0,.58-.06l.48,2.75a5,5,0,0,1-2,.32C375.76,470.45,374.8,468.75,374.8,466Z"/><path class="cls-2" d="M381.91,468.27l1.73-2.37a7,7,0,0,0,4.35,1.76c1.7,0,2.5-.8,2.5-1.89,0-1.31-1.7-1.89-3.36-2.53-2.08-.77-4.42-2-4.42-4.58s2.21-4.7,5.73-4.7a8.49,8.49,0,0,1,5.22,1.89L392,458.1a5.85,5.85,0,0,0-3.46-1.34c-1.57,0-2.3.74-2.3,1.73,0,1.25,1.57,1.73,3.26,2.34,2.14.8,4.51,1.82,4.51,4.77,0,2.69-2.14,4.86-6.11,4.86A10,10,0,0,1,381.91,468.27Z"/><path class="cls-2" d="M273.17,497.82h11.6v7.73h-11.6Z"/><path class="cls-2" d="M284.42,497.82H296v7.73h-11.6Z"/><path class="cls-2" d="M295.67,497.82h11.6v7.73h-11.6Z"/><path class="cls-2" d="M306.92,497.82h11.6v7.73h-11.6Z"/><path class="cls-2" d="M318.17,497.82h11.6v7.73h-11.6Z"/><path class="cls-2" d="M329.42,497.82H341v7.73h-11.6Z"/><path class="cls-2" d="M340.67,497.82h11.6v7.73h-11.6Z"/><path class="cls-2" d="M351.92,497.82h11.6v7.73h-11.6Z"/><path class="cls-2" d="M273.17,519.42h11.6v7.73h-11.6Z"/><path class="cls-2" d="M284.42,519.42H296v7.73h-11.6Z"/><path class="cls-2" d="M295.67,519.42h11.6v7.73h-11.6Z"/><path class="cls-2" d="M306.92,519.42h11.6v7.73h-11.6Z"/><path class="cls-2" d="M318.17,519.42h11.6v7.73h-11.6Z"/><path class="cls-2" d="M329.42,519.42H341v7.73h-11.6Z"/><path class="cls-2" d="M340.67,519.42h11.6v7.73h-11.6Z"/><path class="cls-2" d="M351.92,519.42h11.6v7.73h-11.6Z"/><path class="cls-2" d="M273.17,541h11.6v7.73h-11.6Z"/><path class="cls-2" d="M284.42,541H296v7.73h-11.6Z"/><path class="cls-2" d="M295.67,541h11.6v7.73h-11.6Z"/><path class="cls-2" d="M306.92,541h11.6v7.73h-11.6Z"/><path class="cls-2" d="M318.17,541h11.6v7.73h-11.6Z"/><path class="cls-2" d="M329.42,541H341v7.73h-11.6Z"/><path class="cls-2" d="M340.67,541h11.6v7.73h-11.6Z"/><path class="cls-2" d="M351.92,541h11.6v7.73h-11.6Z"/><path class="cls-2" d="M363.17,541h11.6v7.73h-11.6Z"/><path class="cls-2" d="M374.42,541H386v7.73h-11.6Z"/><path class="cls-2" d="M385.67,541h11.6v7.73h-11.6Z"/><path class="cls-2" d="M396.92,541h11.6v7.73h-11.6Z"/><path class="cls-2" d="M275.83,279.63h3.71v20.93h-3.71Z"/><path class="cls-2" d="M284.53,284.85h3l.26,2.11H288a7.3,7.3,0,0,1,5.15-2.5c3.36,0,4.83,2.27,4.83,6.24v9.86h-3.68v-9.38c0-2.59-.74-3.55-2.46-3.55-1.38,0-2.27.67-3.58,2v11h-3.68Z"/><path class="cls-2" d="M307.89,292.72c0-5.12,3.23-8.26,6.66-8.26a5.8,5.8,0,0,1,4.13,1.73l-.13-2.53V278h3.68v22.59h-3l-.26-1.7h-.13a6.55,6.55,0,0,1-4.45,2.08C310.42,300.94,307.89,297.9,307.89,292.72Zm10.66,3.42v-7.33a4.68,4.68,0,0,0-3.2-1.31c-2,0-3.65,1.89-3.65,5.18s1.28,5.22,3.55,5.22A4.24,4.24,0,0,0,318.55,296.14Z"/><path class="cls-2" d="M325.88,292.72c0-5.12,3.55-8.26,7.23-8.26,4.26,0,6.5,3.07,6.5,7.46a8.56,8.56,0,0,1-.16,1.79h-10c.32,2.78,2.11,4.38,4.64,4.38a6.56,6.56,0,0,0,3.65-1.15l1.25,2.3a9.91,9.91,0,0,1-5.38,1.7C329.27,300.94,325.88,297.9,325.88,292.72Zm10.53-1.5c0-2.43-1.06-3.9-3.2-3.9-1.86,0-3.46,1.38-3.78,3.9Z"/><path class="cls-2" d="M343.13,284.85h3l.26,1.66h.13a7.66,7.66,0,0,1,4.74-2c3.9,0,6.18,3.14,6.18,8,0,5.38-3.23,8.48-6.72,8.48a6.36,6.36,0,0,1-4-1.73l.1,2.62v4.93h-3.68Zm10.53,7.65c0-3.14-1-5-3.39-5a5,5,0,0,0-3.46,1.76v7.33A5,5,0,0,0,350,297.9C352.05,297.9,353.65,296,353.65,292.5Z"/><path class="cls-2" d="M361,295.25v-7.49h-2.24V285l2.43-.16.45-4.29h3.07v4.29h4v2.91h-4v7.49c0,1.86.7,2.75,2.21,2.75a4.51,4.51,0,0,0,1.63-.35l.64,2.72a10,10,0,0,1-3.2.58C362.36,300.94,361,298.64,361,295.25Z"/><path class="cls-2" d="M372,278h3.68v5.82l-.13,3a7.2,7.2,0,0,1,5-2.37c3.36,0,4.83,2.27,4.83,6.24v9.86h-3.68v-9.38c0-2.59-.74-3.55-2.46-3.55-1.38,0-2.27.67-3.58,2v11H372Z"/><path class="cls-2" d="M273.17,328.32h11.6v7.73h-11.6Z"/><path class="cls-2" d="M284.42,328.32H296v7.73h-11.6Z"/><path class="cls-2" d="M295.67,328.32h11.6v7.73h-11.6Z"/><path class="cls-2" d="M306.92,328.32h11.6v7.73h-11.6Z"/><path class="cls-2" d="M318.17,328.32h11.6v7.73h-11.6Z"/><path class="cls-2" d="M329.42,328.32H341v7.73h-11.6Z"/><path class="cls-2" d="M340.67,328.32h11.6v7.73h-11.6Z"/><path class="cls-2" d="M351.92,328.32h11.6v7.73h-11.6Z"/><path class="cls-2" d="M273.17,349.92h11.6v7.73h-11.6Z"/><path class="cls-2" d="M284.42,349.92H296v7.73h-11.6Z"/><path class="cls-2" d="M295.67,349.92h11.6v7.73h-11.6Z"/><path class="cls-2" d="M306.92,349.92h11.6v7.73h-11.6Z"/><path class="cls-2" d="M318.17,349.92h11.6v7.73h-11.6Z"/><path class="cls-2" d="M329.42,349.92H341v7.73h-11.6Z"/><path class="cls-2" d="M340.67,349.92h11.6v7.73h-11.6Z"/><path class="cls-2" d="M351.92,349.92h11.6v7.73h-11.6Z"/><path class="cls-2" d="M273.17,371.52h11.6v7.73h-11.6Z"/><path class="cls-2" d="M284.42,371.52H296v7.73h-11.6Z"/><path class="cls-2" d="M295.67,371.52h11.6v7.73h-11.6Z"/><path class="cls-2" d="M306.92,371.52h11.6v7.73h-11.6Z"/><path class="cls-2" d="M318.17,371.52h11.6v7.73h-11.6Z"/><path class="cls-2" d="M329.42,371.52H341v7.73h-11.6Z"/><path class="cls-2" d="M340.67,371.52h11.6v7.73h-11.6Z"/><path class="cls-2" d="M351.92,371.52h11.6v7.73h-11.6Z"/><path class="cls-2" d="M363.17,371.52h11.6v7.73h-11.6Z"/><path class="cls-2" d="M374.42,371.52H386v7.73h-11.6Z"/><path class="cls-2" d="M385.67,371.52h11.6v7.73h-11.6Z"/><path class="cls-2" d="M396.92,371.52h11.6v7.73h-11.6Z"/><path d="M22.86,62.79l2-2.42A6.34,6.34,0,0,0,28.74,62c1.46,0,2.18-.58,2.18-1.51s-.89-1.3-2.26-1.87l-2-.86a4.56,4.56,0,0,1-3.14-4.27c0-2.59,2.3-4.66,5.57-4.66a7.25,7.25,0,0,1,5,2.06l-1.8,2.23a5.07,5.07,0,0,0-3.24-1.25c-1.22,0-2,.53-2,1.42s1,1.3,2.38,1.85l2,.82a4.32,4.32,0,0,1,3.1,4.25c0,2.59-2.16,4.85-5.9,4.85A8.57,8.57,0,0,1,22.86,62.79Z"/><path d="M36.23,58.81a6,6,0,0,1,6.19-6.24,5.26,5.26,0,0,1,3.48,1.27l-1.66,2.28a2.44,2.44,0,0,0-1.61-.7c-1.7,0-2.78,1.32-2.78,3.38s1.13,3.38,2.66,3.38a3.64,3.64,0,0,0,2.14-.86L46,63.64a6,6,0,0,1-3.94,1.42C38.8,65.05,36.23,62.77,36.23,58.81Z"/><path d="M47.85,49.26a2.05,2.05,0,1,1,2,1.85A1.87,1.87,0,0,1,47.85,49.26Zm.29,3.6h3.53v11.9H48.13Z"/><path d="M54.06,58.81c0-3.86,2.76-6.24,5.62-6.24,3.38,0,5.06,2.47,5.06,5.71a7.86,7.86,0,0,1-.14,1.56H57.47a2.88,2.88,0,0,0,3.1,2.52,4.79,4.79,0,0,0,2.57-.79l1.18,2.14a7.79,7.79,0,0,1-4.22,1.34C56.68,65.05,54.06,62.75,54.06,58.81Zm7.68-1.3c0-1.32-.58-2.26-2-2.26a2.36,2.36,0,0,0-2.3,2.26Z"/><path d="M67.19,52.86h2.88l.24,1.51h.1a5.49,5.49,0,0,1,3.82-1.8c2.59,0,3.7,1.82,3.7,4.8v7.39H74.39V57.83c0-1.73-.46-2.26-1.46-2.26a3,3,0,0,0-2.21,1.15v8H67.19Z"/><path d="M80.22,58.81a6,6,0,0,1,6.19-6.24,5.26,5.26,0,0,1,3.48,1.27l-1.66,2.28a2.44,2.44,0,0,0-1.61-.7c-1.7,0-2.78,1.32-2.78,3.38s1.13,3.38,2.66,3.38a3.64,3.64,0,0,0,2.14-.86L90,63.64a6,6,0,0,1-3.94,1.42C82.79,65.05,80.22,62.77,80.22,58.81Z"/><path d="M90.76,58.81c0-3.86,2.76-6.24,5.62-6.24,3.38,0,5.06,2.47,5.06,5.71a7.86,7.86,0,0,1-.14,1.56H94.16a2.88,2.88,0,0,0,3.1,2.52,4.79,4.79,0,0,0,2.57-.79L101,63.71a7.79,7.79,0,0,1-4.22,1.34C93.37,65.05,90.76,62.75,90.76,58.81Zm7.68-1.3c0-1.32-.58-2.26-2-2.26a2.36,2.36,0,0,0-2.3,2.26Z"/><path d="M109,49.11h5.38c3.43,0,6.22,1.25,6.22,5s-2.81,5.3-6.12,5.3H112.5v5.3H109Zm5.26,7.54c1.94,0,2.88-.86,2.88-2.5s-1.06-2.23-3-2.23H112.5v4.73Z"/><path d="M122.7,49.26a2.05,2.05,0,1,1,2,1.85A1.87,1.87,0,0,1,122.7,49.26Zm.29,3.6h3.53v11.9H123Z"/><path d="M129.61,52.86h2.88l.24,1.18h.1a5.24,5.24,0,0,1,3.38-1.46c2.88,0,4.66,2.38,4.66,6,0,4.08-2.45,6.43-5,6.43A4.13,4.13,0,0,1,133,63.8l.12,1.9v3.48h-3.53Zm7.63,5.81c0-2.14-.65-3.22-2.06-3.22a2.75,2.75,0,0,0-2,1.08V61.4a2.74,2.74,0,0,0,1.9.77C136.26,62.17,137.24,61.11,137.24,58.67Z"/><path d="M142.67,58.81c0-3.86,2.76-6.24,5.62-6.24,3.38,0,5.06,2.47,5.06,5.71a7.86,7.86,0,0,1-.14,1.56h-7.13a2.88,2.88,0,0,0,3.1,2.52,4.79,4.79,0,0,0,2.57-.79l1.18,2.14a7.79,7.79,0,0,1-4.22,1.34C145.28,65.05,142.67,62.75,142.67,58.81Zm7.68-1.3c0-1.32-.58-2.26-2-2.26a2.36,2.36,0,0,0-2.3,2.26Z"/><path d="M155.8,61.07V47.94h3.53V61.21c0,.74.34,1,.62,1a1.49,1.49,0,0,0,.43,0l.43,2.62a4.6,4.6,0,0,1-1.78.29C156.61,65.05,155.8,63.47,155.8,61.07Z"/><path d="M162.37,49.26a2.05,2.05,0,1,1,2,1.85A1.87,1.87,0,0,1,162.37,49.26Zm.29,3.6h3.53v11.9h-3.53Z"/><path d="M169.28,52.86h2.88l.24,1.51h.1a5.49,5.49,0,0,1,3.82-1.8c2.59,0,3.7,1.82,3.7,4.8v7.39h-3.53V57.83c0-1.73-.46-2.26-1.46-2.26a3,3,0,0,0-2.21,1.15v8h-3.53Z"/><path d="M182.31,58.81c0-3.86,2.76-6.24,5.62-6.24,3.38,0,5.06,2.47,5.06,5.71a7.86,7.86,0,0,1-.14,1.56h-7.13a2.88,2.88,0,0,0,3.1,2.52,4.79,4.79,0,0,0,2.57-.79l1.18,2.14a7.79,7.79,0,0,1-4.22,1.34C184.93,65.05,182.31,62.75,182.31,58.81Zm7.68-1.3c0-1.32-.58-2.26-2-2.26a2.36,2.36,0,0,0-2.3,2.26Z"/><path d="M194.39,63.4,196,61.19A5.13,5.13,0,0,0,199,62.44c1.06,0,1.51-.38,1.51-1,0-.79-1.2-1.15-2.42-1.63-1.44-.55-3.14-1.54-3.14-3.5,0-2.21,1.8-3.72,4.56-3.72a6.85,6.85,0,0,1,4.2,1.51l-1.58,2.11a4.39,4.39,0,0,0-2.52-1c-.91,0-1.34.34-1.34.94,0,.77,1.1,1.06,2.33,1.51,1.51.55,3.22,1.39,3.22,3.58s-1.7,3.84-4.9,3.84A7.69,7.69,0,0,1,194.39,63.4Z"/><path class="cls-5" d="M96.73,22.28c.16-.44.38-.86.51-1.31-.75-.07-17.21-.1-18.63-.07-1,0-2.25,0-2.81,1a1.27,1.27,0,0,0,0,1.24,1.94,1.94,0,0,0,.92.72c.45.21,3.29,1,3.4,1,3,.68,6,1.3,8.23,2.79a10,10,0,0,1,1.5,1.66,7.21,7.21,0,0,1,.27.75,4,4,0,0,1,.13,1.62,5.07,5.07,0,0,1-1.33,2.88,11.4,11.4,0,0,1-5.4,2.84,35.44,35.44,0,0,1-6.88,1.1c-1.22.09-2.43.12-3.65.18s-2.56,0-3.83,0c-.08,0-2.06-.11-2.88-.19-.15,0-4.23-.63-4.34-.63-1.69-.32-3.33-.78-5-1.2a1.09,1.09,0,0,0-.75.16c-.32.15-.64.29-1,.41a14.17,14.17,0,0,1-2.4.66l-1.33.22a41.17,41.17,0,0,1-7.12.17c-2.44,0-7.52,0-7.6,0-4,0-12.42,0-12.5,0H22q3.88-10.9,7.82-21.75h5.67c-.45,1.17-3.63,10.11-3.89,10.81-.12.32-2.17,6.07-2.38,6.63,1.85.06,5.91,0,6,.06h7.1l3.79,0A11.27,11.27,0,0,0,48,34a9.59,9.59,0,0,0,1.52-.44c.59-.37,1.31-.91,1.29-1.69s-.93-1.37-1.62-1.65a17.65,17.65,0,0,0-2.61-.78l-2.41-.54-3.56-1c-.14,0-1.13-.45-1.47-.62a7.33,7.33,0,0,1-1.13-.57C36.46,26,36,24,36.33,22.4a6.12,6.12,0,0,1,3.49-3.9,18.36,18.36,0,0,1,1.91-.9c.52-.16,1.82-.46,1.92-.46.9-.17,1.79-.34,2.72-.47a3.43,3.43,0,0,0,.44-.06,53.32,53.32,0,0,1,8-.35c1.39,0,2.78.06,4.16.17s2.76.3,4.12.53c1,.17,2,.36,3,.55.52.1,1,.18,1.56.27s1.67.34,1.79.37a.69.69,0,0,0,.42-.08,11.1,11.1,0,0,1,1-.41,21.4,21.4,0,0,1,2.19-.59,19.59,19.59,0,0,1,2.26-.35c.4,0,.8-.06,1.21-.08s7.37,0,7.37,0h29.47c.07,0-1.25,3.48-1.58,4.31h-8.93c-.9,2.42-6.31,17.18-6.43,17.44H90.84Z"/><g id="dmO4pr"><path class="cls-6" d="M65.35,22.84c-.09,4,2.42,4.72,6.1,5.89,1.84.58,5.65,1.52,5.68,3.15S74,34.08,72.71,34.19A23.49,23.49,0,0,1,62.2,32.72c-.12-3.89-2.34-5.4-5.89-6.52-2-.62-6.07-1-6.1-2.73,0-2.28,5.78-2.26,8.2-2.1A24.2,24.2,0,0,1,65.35,22.84Z"/><path class="cls-7" d="M68.71,21.16c.63.9-.45,1.57-.21,2.73,1.26,2.63,4.86,2.73,8.41,3.57,2.85.68,7.41,1.58,7.57,4.41.24,4.17-7.68,4.86-11.56,5-5.91.28-10.76-.72-14.08-2.52.36-3.39-.78-5-3.78-6.1s-12-1.18-12.61-4.41c-.8-4.06,5.73-5,8.62-5.26C57.82,18.14,64.65,19.19,68.71,21.16Zm-10.3.21c-2.42-.16-8.24-.18-8.2,2.1,0,1.77,4.12,2.11,6.1,2.73,3.54,1.12,5.77,2.63,5.89,6.52a23.49,23.49,0,0,0,10.51,1.47c1.27-.12,4.44-.62,4.41-2.31s-3.83-2.57-5.68-3.15c-3.68-1.16-6.19-1.85-6.1-5.89A24.2,24.2,0,0,0,58.41,21.37Z"/></g><g id="_252lNN" data-name="252lNN"><path class="cls-8" d="M62.14,32.91c.07-5.21-4.31-6-8.57-7.27-1.54-.45-3.93-1.16-4-2.42,0-1.51,3-2.27,4.82-2.42a28.39,28.39,0,0,1,6.32.33c1.6.24,4.52.5,5.14,1.54.34.57.3,2.05.54,2.64,1.18,2.95,4.88,3.22,8.25,4.29,1.53.49,3.5,1.23,3.54,2.64,0,1.86-2.76,2.5-4.61,2.64C69.42,35.23,64.44,34.9,62.14,32.91Zm-6.43-9.25c.94.87,4,1.47,5.68,2.64A7.13,7.13,0,0,1,64.5,31.7a10.17,10.17,0,0,0,4.07,1.1c1.1.15,4.12.71,4.18-.66s-3.08-1.64-4.29-2.2c-2.37-1.1-4.52-3.2-4.82-5.94C63.37,23.22,55.22,21.67,55.71,23.67Z"/></g><line class="cls-4" x1="245.34" x2="245.34" y2="768"/><path class="cls-2" d="M22.18,95.9h1.72l1.29,4.61c.29,1,.5,1.93.81,3h.06c.31-1.05.52-1.95.8-3l1.27-4.61H29.8L27,105.06H25Z"/><path class="cls-2" d="M30.08,101.63A3.35,3.35,0,0,1,33.25,98c1.86,0,2.84,1.34,2.84,3.26a3.76,3.76,0,0,1-.07.78H31.65a2,2,0,0,0,2,1.92,2.87,2.87,0,0,0,1.6-.5l.55,1a4.34,4.34,0,0,1-2.35.74A3.32,3.32,0,0,1,30.08,101.63Zm4.61-.66c0-1.06-.46-1.71-1.4-1.71A1.73,1.73,0,0,0,31.64,101Z"/><path class="cls-2" d="M37.63,98.18H39l.11,1.22h.06A2.34,2.34,0,0,1,41.07,98a1.75,1.75,0,0,1,.78.14l-.28,1.4a2.24,2.24,0,0,0-.71-.11c-.55,0-1.2.38-1.62,1.42v4.2H37.63Z"/><path class="cls-2" d="M42.08,104.27l.76-1a3.06,3.06,0,0,0,1.9.77c.74,0,1.09-.35,1.09-.83s-.74-.83-1.47-1.11c-.91-.34-1.93-.85-1.93-2s1-2.06,2.51-2.06a3.71,3.71,0,0,1,2.28.83l-.74,1A2.56,2.56,0,0,0,45,99.23c-.69,0-1,.32-1,.76s.69.76,1.43,1c.94.35,2,.8,2,2.09s-.94,2.13-2.68,2.13A4.36,4.36,0,0,1,42.08,104.27Z"/><path class="cls-2" d="M48.62,96.07a1,1,0,1,1,1,.91A.93.93,0,0,1,48.62,96.07Zm.18,2.11h1.61v6.88H48.8Z"/><path class="cls-2" d="M52,101.63a3.29,3.29,0,1,1,3.26,3.6A3.33,3.33,0,0,1,52,101.63Zm4.89,0c0-1.39-.62-2.3-1.62-2.3s-1.61.91-1.61,2.3.6,2.28,1.61,2.28S56.91,103,56.91,101.63Z"/><path class="cls-2" d="M60.15,98.18h1.33l.11.92h.06A3.19,3.19,0,0,1,63.91,98c1.47,0,2.12,1,2.12,2.73v4.31H64.41V101c0-1.13-.32-1.56-1.08-1.56a2.18,2.18,0,0,0-1.57.85v4.8H60.15Z"/><path class="cls-9" d="M192.49,127.5h18a4,4,0,0,0,4-4v-10a4,4,0,0,0-4-4h-18Z"/><rect class="cls-3" x="18.5" y="109.5" width="196" height="18" rx="4" ry="4"/><path class="cls-2" d="M24,113.39h2.8c3.2,0,5.09,1.73,5.09,5.19s-1.89,5.28-5,5.28H24Zm2.67,9c2.11,0,3.31-1.2,3.31-3.78s-1.2-3.68-3.31-3.68h-.82v7.46Z"/><path class="cls-2" d="M34,113.39h2.1l1.86,5.12c.22.66.45,1.36.67,2h.06c.22-.69.43-1.39.66-2l1.81-5.12h2.11v10.47H41.53v-4.79c0-1,.14-2.37.24-3.33h-.06l-.85,2.43-1.71,4.71H38l-1.73-4.71-.83-2.43h-.06c.08,1,.24,2.35.24,3.33v4.79H34Z"/><path class="cls-2" d="M45.24,119.15H49v1.34H45.24Z"/><path class="cls-2" d="M56.15,115.76a2.2,2.2,0,0,0-1.62-.77c-1.28,0-2.32.94-2.4,3.76a3,3,0,0,1,2.21-1.2c1.76,0,3,1,3,3.15a3.18,3.18,0,0,1-3.2,3.35c-2,0-3.7-1.55-3.7-5,0-4,1.92-5.59,4-5.59a3.63,3.63,0,0,1,2.72,1.15Zm-.54,4.95c0-1.2-.59-1.81-1.6-1.81a2.28,2.28,0,0,0-1.82,1.17c.19,1.81.91,2.58,1.9,2.58S55.61,122,55.61,120.71Z"/><path class="cls-2" d="M59.11,122.36h2.27v-6.69H59.51v-1.15a6.84,6.84,0,0,0,2.35-.83h1.38v8.68h2v1.5H59.11Z"/><path class="cls-2" d="M67.88,121.78a2.23,2.23,0,0,0,1.63.77c1.28,0,2.32-.94,2.4-3.76A3.07,3.07,0,0,1,69.69,120c-1.74,0-3-1-3-3.15a3.16,3.16,0,0,1,3.2-3.33c2,0,3.68,1.54,3.68,5,0,4-1.9,5.6-4,5.6a3.66,3.66,0,0,1-2.72-1.15Zm4-4.32c-.19-1.79-.93-2.56-1.92-2.56-.83,0-1.52.69-1.52,1.92s.59,1.82,1.62,1.82A2.28,2.28,0,0,0,71.86,117.46Z"/><path class="cls-2" d="M76.09,121.78a2.23,2.23,0,0,0,1.63.77c1.28,0,2.32-.94,2.4-3.76A3.07,3.07,0,0,1,77.9,120c-1.74,0-3-1-3-3.15a3.16,3.16,0,0,1,3.2-3.33c2,0,3.68,1.54,3.68,5,0,4-1.9,5.6-4,5.6a3.66,3.66,0,0,1-2.72-1.15Zm4-4.32c-.19-1.79-.93-2.56-1.92-2.56-.83,0-1.52.69-1.52,1.92s.59,1.82,1.62,1.82A2.28,2.28,0,0,0,80.07,117.46Z"/><path class="cls-10" d="M208.51,113.85,203,125.25H203l-5.49-11.4v0h11Z"/><path class="cls-2" d="M854.42,33.71l-2.54-4.61h-1.8v4.61H848V21.94h4c2.45,0,4.32.86,4.32,3.49A3.29,3.29,0,0,1,854,28.8l2.81,4.92Zm-4.34-6.27h1.67c1.6,0,2.48-.68,2.48-2s-.88-1.82-2.48-1.82h-1.67Z"/><path class="cls-2" d="M857.71,29.3c0-2.88,2-4.65,4.07-4.65,2.39,0,3.66,1.73,3.66,4.2a4.85,4.85,0,0,1-.09,1h-5.62a2.53,2.53,0,0,0,2.61,2.47,3.69,3.69,0,0,0,2.05-.65l.7,1.3a5.58,5.58,0,0,1-3,1A4.26,4.26,0,0,1,857.71,29.3Zm5.92-.85c0-1.37-.59-2.2-1.8-2.2a2.22,2.22,0,0,0-2.12,2.2Z"/><path class="cls-2" d="M867.54,30.72V26.51h-1.26V25l1.37-.09.25-2.41h1.73v2.41h2.25v1.64h-2.25v4.21c0,1,.4,1.55,1.24,1.55a2.53,2.53,0,0,0,.92-.2l.36,1.53a5.65,5.65,0,0,1-1.8.32C868.29,33.93,867.54,32.63,867.54,30.72Z"/><path class="cls-2" d="M873.64,30.42V24.87h2.07v5.28c0,1.46.41,2,1.37,2,.77,0,1.3-.36,2-1.22v-6h2.07v8.84h-1.69l-.16-1.3h-.05a3.6,3.6,0,0,1-2.85,1.51C874.47,33.93,873.64,32.65,873.64,30.42Z"/><path class="cls-2" d="M883.74,24.87h1.71l.14,1.57h.07a3,3,0,0,1,2.5-1.78,2.24,2.24,0,0,1,1,.18l-.36,1.8a2.9,2.9,0,0,0-.92-.14c-.7,0-1.55.49-2.09,1.82v5.4h-2.07Z"/><path class="cls-2" d="M890.45,24.87h1.71l.14,1.19h.07a4.11,4.11,0,0,1,2.9-1.4c1.89,0,2.72,1.28,2.72,3.51v5.55h-2.07V28.44c0-1.46-.41-2-1.39-2a2.8,2.8,0,0,0-2,1.1v6.18h-2.07Z"/><path class="cls-2" d="M904.44,30.72V26.51h-1.26V25l1.37-.09.25-2.41h1.73v2.41h2.25v1.64h-2.25v4.21c0,1,.4,1.55,1.24,1.55a2.53,2.53,0,0,0,.92-.2L909,33.6a5.65,5.65,0,0,1-1.8.32C905.19,33.93,904.44,32.63,904.44,30.72Z"/><path class="cls-2" d="M909.77,29.3c0-3,2-4.65,4.2-4.65s4.21,1.69,4.21,4.65A4.27,4.27,0,0,1,914,33.93C911.76,33.93,909.77,32.24,909.77,29.3Zm6.28,0c0-1.78-.79-3-2.09-3s-2.07,1.17-2.07,3,.77,2.93,2.07,2.93S916,31.07,916,29.3Z"/><path class="cls-2" d="M923.82,31.44V21h2.07V31.55c0,.5.23.68.45.68a1.23,1.23,0,0,0,.32,0l.27,1.55a2.83,2.83,0,0,1-1.1.18C924.36,33.93,923.82,33,923.82,31.44Z"/><path class="cls-2" d="M927.82,32.7l1-1.33a3.93,3.93,0,0,0,2.45,1c1,0,1.41-.45,1.41-1.06s-1-1.06-1.89-1.42c-1.17-.43-2.49-1.1-2.49-2.58s1.24-2.65,3.22-2.65a4.77,4.77,0,0,1,2.93,1.06l-1,1.26a3.29,3.29,0,0,0-1.94-.76c-.88,0-1.3.41-1.3,1s.88,1,1.84,1.31c1.21.45,2.54,1,2.54,2.68s-1.21,2.74-3.44,2.74A5.6,5.6,0,0,1,927.82,32.7Z"/><path class="cls-2" d="M935.58,32.7l1-1.33a3.93,3.93,0,0,0,2.45,1c1,0,1.4-.45,1.4-1.06s-1-1.06-1.89-1.42c-1.17-.43-2.49-1.1-2.49-2.58s1.24-2.65,3.22-2.65a4.77,4.77,0,0,1,2.93,1.06l-1,1.26a3.3,3.3,0,0,0-1.95-.76c-.88,0-1.3.41-1.3,1s.88,1,1.84,1.31c1.21.45,2.54,1,2.54,2.68s-1.21,2.74-3.44,2.74A5.6,5.6,0,0,1,935.58,32.7Z"/><path class="cls-2" d="M944.16,30.72V26.51H942.9V25l1.37-.09.25-2.41h1.73v2.41h2.25v1.64h-2.25v4.21c0,1,.4,1.55,1.24,1.55a2.53,2.53,0,0,0,.92-.2l.36,1.53a5.64,5.64,0,0,1-1.8.32C944.92,33.93,944.16,32.63,944.16,30.72Z"/><path class="cls-2" d="M950.12,32.52a1.35,1.35,0,0,1,1.35-1.4,1.41,1.41,0,0,1,0,2.81A1.35,1.35,0,0,1,950.12,32.52Z"/><path class="cls-2" d="M954.48,29.3c0-3,2-4.65,4.2-4.65s4.21,1.69,4.21,4.65a4.27,4.27,0,0,1-4.21,4.63C956.48,33.93,954.48,32.24,954.48,29.3Zm6.28,0c0-1.78-.79-3-2.09-3s-2.07,1.17-2.07,3,.77,2.93,2.07,2.93S960.76,31.07,960.76,29.3Z"/><path class="cls-2" d="M964.94,24.87h1.71l.14,1.57h.07a3,3,0,0,1,2.5-1.78,2.24,2.24,0,0,1,1,.18l-.36,1.8a2.89,2.89,0,0,0-.92-.14c-.7,0-1.55.49-2.09,1.82v5.4h-2.07Z"/><path class="cls-2" d="M970.88,35.32a2.28,2.28,0,0,1,1.26-1.89v-.07a1.66,1.66,0,0,1-.79-1.48,2.13,2.13,0,0,1,1-1.64v-.07a3,3,0,0,1-1.15-2.34,3.21,3.21,0,0,1,3.49-3.17,4,4,0,0,1,1.3.22h3.17V26.4H977.5a2.36,2.36,0,0,1,.5,1.49c0,2-1.48,3-3.35,3a3.26,3.26,0,0,1-1.21-.23,1,1,0,0,0-.43.85c0,.5.36.81,1.44.81H976c2.13,0,3.24.65,3.24,2.18,0,1.75-1.84,3.12-4.72,3.12C972.44,37.62,970.88,36.86,970.88,35.32Zm6.39-.47c0-.68-.56-.88-1.57-.88H974.5a4.68,4.68,0,0,1-1.21-.13A1.49,1.49,0,0,0,972.6,35c0,.79.86,1.26,2.27,1.26S977.27,35.6,977.27,34.85Zm-1.08-7a1.55,1.55,0,1,0-3.08,0,1.56,1.56,0,1,0,3.08,0Z"/><path class="cls-2" d="M987.83,32.87,991,30h-7.15V28.35H991l-3.13-2.86,1-1.13,5,4.79v.07l-5,4.79Z"/><path class="cls-2" d="M22.9,271.64c0-3.85,2.41-6.14,5.38-6.14a4.67,4.67,0,0,1,3.4,1.49l-1.12,1.35a3.07,3.07,0,0,0-2.23-1c-1.93,0-3.29,1.62-3.29,4.27s1.26,4.3,3.24,4.3a3.36,3.36,0,0,0,2.52-1.21L31.92,276a4.75,4.75,0,0,1-3.71,1.71C25.24,277.71,22.9,275.55,22.9,271.64Z"/><path class="cls-2" d="M33.47,265.93a1.28,1.28,0,1,1,1.28,1.17A1.19,1.19,0,0,1,33.47,265.93Zm.23,2.72h2.07v8.84H33.7Z"/><path class="cls-2" d="M38.73,274.5v-4.21H37.46v-1.55l1.37-.09.25-2.41h1.73v2.41h2.25v1.64H40.81v4.21c0,1,.4,1.55,1.24,1.55a2.52,2.52,0,0,0,.92-.2l.36,1.53a5.65,5.65,0,0,1-1.8.32C39.48,277.71,38.73,276.41,38.73,274.5Z"/><path class="cls-2" d="M44.05,273.08c0-2.88,2-4.65,4.07-4.65,2.39,0,3.65,1.73,3.65,4.2a4.81,4.81,0,0,1-.09,1H46.07a2.53,2.53,0,0,0,2.61,2.47,3.69,3.69,0,0,0,2.05-.65l.7,1.3a5.57,5.57,0,0,1-3,1A4.26,4.26,0,0,1,44.05,273.08Zm5.92-.85c0-1.37-.59-2.2-1.8-2.2a2.22,2.22,0,0,0-2.12,2.2Z"/><path class="cls-2" d="M57.66,274.5v-4.21H56.4v-1.55l1.37-.09.25-2.41h1.73v2.41H62v1.64H59.75v4.21c0,1,.4,1.55,1.24,1.55a2.52,2.52,0,0,0,.92-.2l.36,1.53a5.65,5.65,0,0,1-1.8.32C58.42,277.71,57.66,276.41,57.66,274.5Z"/><path class="cls-2" d="M63.85,264.78h2.07v3.28l-.07,1.71a4.05,4.05,0,0,1,2.83-1.33c1.89,0,2.72,1.28,2.72,3.51v5.55H69.33v-5.28c0-1.46-.41-2-1.39-2a2.8,2.8,0,0,0-2,1.1v6.18H63.85Z"/><path class="cls-2" d="M73.66,265.93a1.28,1.28,0,1,1,1.28,1.17A1.19,1.19,0,0,1,73.66,265.93Zm.23,2.72H76v8.84H73.9Z"/><path class="cls-2" d="M77.73,276.48l1-1.33a3.93,3.93,0,0,0,2.45,1c1,0,1.4-.45,1.4-1.06s-1-1.06-1.89-1.42c-1.17-.43-2.48-1.1-2.48-2.58s1.24-2.65,3.22-2.65a4.77,4.77,0,0,1,2.93,1.06l-1,1.26a3.29,3.29,0,0,0-1.94-.76c-.88,0-1.3.41-1.3,1s.88,1,1.84,1.31c1.21.45,2.54,1,2.54,2.68s-1.21,2.74-3.44,2.74A5.59,5.59,0,0,1,77.73,276.48Z"/><path class="cls-2" d="M90,268.65h1.71l.14.94h.07a4.31,4.31,0,0,1,2.66-1.15c2.2,0,3.48,1.76,3.48,4.5,0,3-1.82,4.77-3.78,4.77a3.57,3.57,0,0,1-2.27-1l.05,1.48V281H90Zm5.92,4.3c0-1.76-.58-2.81-1.91-2.81a2.83,2.83,0,0,0-1.94,1v4.12a2.8,2.8,0,0,0,1.78.74C95,276,95.89,275,95.89,273Z"/><path class="cls-2" d="M99.44,275.12c0-1.89,1.57-2.88,5.2-3.28,0-.94-.41-1.73-1.62-1.73a5,5,0,0,0-2.48.86l-.76-1.39a6.91,6.91,0,0,1,3.64-1.15c2.2,0,3.29,1.35,3.29,3.82v5.24H105l-.14-1h-.07a4.3,4.3,0,0,1-2.74,1.19A2.47,2.47,0,0,1,99.44,275.12Zm5.2,0v-2c-2.41.31-3.21.94-3.21,1.82s.54,1.13,1.28,1.13A2.81,2.81,0,0,0,104.64,275.12Z"/><path class="cls-2" d="M108.6,279.1a2.28,2.28,0,0,1,1.26-1.89v-.07a1.66,1.66,0,0,1-.79-1.48,2.13,2.13,0,0,1,1-1.64v-.07a3,3,0,0,1-1.15-2.34,3.21,3.21,0,0,1,3.49-3.17,4,4,0,0,1,1.3.22h3.17v1.53h-1.62a2.36,2.36,0,0,1,.5,1.49c0,2-1.48,3-3.35,3a3.26,3.26,0,0,1-1.21-.23,1,1,0,0,0-.43.85c0,.5.36.81,1.44.81h1.57c2.12,0,3.24.65,3.24,2.18,0,1.75-1.84,3.12-4.72,3.12C110.17,281.4,108.6,280.64,108.6,279.1Zm6.39-.47c0-.68-.56-.88-1.57-.88h-1.21a4.69,4.69,0,0,1-1.21-.13,1.49,1.49,0,0,0-.68,1.17c0,.79.86,1.26,2.27,1.26S115,279.38,115,278.63Zm-1.08-7a1.55,1.55,0,1,0-3.08,0,1.56,1.56,0,1,0,3.08,0Z"/><path class="cls-2" d="M117.69,273.08c0-2.88,2-4.65,4.07-4.65,2.39,0,3.65,1.73,3.65,4.2a4.81,4.81,0,0,1-.09,1h-5.62a2.53,2.53,0,0,0,2.61,2.47,3.69,3.69,0,0,0,2.05-.65l.7,1.3a5.57,5.57,0,0,1-3,1A4.26,4.26,0,0,1,117.69,273.08Zm5.92-.85c0-1.37-.59-2.2-1.8-2.2a2.22,2.22,0,0,0-2.12,2.2Z"/><path class="cls-2" d="M22,291.36h11.6v7.73H22Z"/><path class="cls-2" d="M33.27,291.36h11.6v7.73H33.27Z"/><path class="cls-2" d="M44.52,291.36h11.6v7.73H44.52Z"/><path class="cls-2" d="M55.77,291.36h11.6v7.73H55.77Z"/><path class="cls-2" d="M89.59,291.36h11.6v7.73H89.59Z"/><path class="cls-2" d="M100.84,291.36h11.6v7.73h-11.6Z"/><path class="cls-2" d="M112.09,291.36h11.6v7.73h-11.6Z"/><path class="cls-2" d="M123.34,291.36h11.6v7.73h-11.6Z"/><path class="cls-2" d="M134.59,291.36h11.6v7.73h-11.6Z"/><path class="cls-2" d="M145.84,291.36h11.6v7.73h-11.6Z"/><path class="cls-2" d="M157.09,291.36h11.6v7.73h-11.6Z"/><path class="cls-2" d="M22,313h11.6v7.73H22Z"/><path class="cls-2" d="M33.27,313h11.6v7.73H33.27Z"/><path class="cls-2" d="M44.52,313h11.6v7.73H44.52Z"/><path class="cls-2" d="M55.77,313h11.6v7.73H55.77Z"/><path class="cls-2" d="M67,313h11.6v7.73H67Z"/><path class="cls-2" d="M78.27,313h11.6v7.73H78.27Z"/><path class="cls-2" d="M89.52,313h11.6v7.73H89.52Z"/><path class="cls-2" d="M100.77,313h11.6v7.73h-11.6Z"/><path class="cls-2" d="M112,313h11.6v7.73H112Z"/><path class="cls-2" d="M123.27,313h11.6v7.73h-11.6Z"/><path class="cls-2" d="M134.52,313h11.6v7.73h-11.6Z"/><path class="cls-2" d="M145.77,313h11.6v7.73h-11.6Z"/><path class="cls-2" d="M157,313h11.6v7.73H157Z"/><path class="cls-2" d="M168.27,313h11.6v7.73h-11.6Z"/><path class="cls-2" d="M179.52,313h11.6v7.73h-11.6Z"/><path class="cls-2" d="M190.77,313h11.6v7.73h-11.6Z"/><path class="cls-2" d="M22,334.56h11.6v7.73H22Z"/><path class="cls-2" d="M33.27,334.56h11.6v7.73H33.27Z"/><path class="cls-2" d="M44.52,334.56h11.6v7.73H44.52Z"/><path class="cls-2" d="M55.77,334.56h11.6v7.73H55.77Z"/><path class="cls-2" d="M67,334.56h11.6v7.73H67Z"/></g></svg>